<svg width="24" height="24" viewBox="0 0 24 24" fill="none" xmlns="http://www.w3.org/2000/svg">
<g id="Chat-Alt">
<path id="icon" fill-rule="evenodd" clip-rule="evenodd" d="M3.8182 12C3.8182 7.4813 7.48132 3.81818 12 3.81818C16.5187 3.81818 20.1818 7.4813 20.1818 12C20.1818 16.5187 16.5187 20.1818 12 20.1818C10.5082 20.1818 9.11228 19.7834 7.90977 19.0878C7.70093 18.967 7.45264 18.9341 7.21959 18.9965L4.19396 19.806L5.00351 16.7804C5.06587 16.5474 5.03303 16.2991 4.91223 16.0902C4.21661 14.8877 3.8182 13.4918 3.8182 12ZM12 2C6.47717 2 2.00002 6.47715 2.00002 12C2.00002 13.6829 2.41647 15.271 3.15242 16.6644L2.03091 20.8559C1.94699 21.1696 2.03671 21.5041 2.26629 21.7337C2.49586 21.9633 2.83045 22.053 3.14409 21.9691L7.33563 20.8476C8.729 21.5835 10.3171 22 12 22C17.5229 22 22 17.5228 22 12C22 6.47715 17.5229 2 12 2ZM8.59092 12C8.59092 12.6276 8.08216 13.1364 7.45456 13.1364C6.82697 13.1364 6.3182 12.6276 6.3182 12C6.3182 11.3724 6.82697 10.8636 7.45456 10.8636C8.08216 10.8636 8.59092 11.3724 8.59092 12ZM13.1364 12C13.1364 12.6276 12.6276 13.1364 12 13.1364C11.3724 13.1364 10.8636 12.6276 10.8636 12C10.8636 11.3724 11.3724 10.8636 12 10.8636C12.6276 10.8636 13.1364 11.3724 13.1364 12ZM16.5455 13.1364C17.1731 13.1364 17.6818 12.6276 17.6818 12C17.6818 11.3724 17.1731 10.8636 16.5455 10.8636C15.9179 10.8636 15.4091 11.3724 15.4091 12C15.4091 12.6276 15.9179 13.1364 16.5455 13.1364Z" fill="#FBFBFB"/>
</g>
</svg>
