<svg width="137" height="145" viewBox="0 0 137 145" fill="none" xmlns="http://www.w3.org/2000/svg">
<path d="M67.6245 78.3312C75.8171 77.3207 85.7 81.9922 91.3577 85.9178C101.216 91.9149 106.762 103.506 112.146 113.961M114.215 106.255C113.208 108.977 113.056 112.58 113.639 117.336C110.114 113.729 108.226 112.261 104.449 111.118" stroke="#D5D6D7" stroke-width="1.5" stroke-miterlimit="1.5" stroke-linecap="round" stroke-linejoin="round"/>
<path d="M37.9871 40.5107C38.1044 40.5094 38.2158 40.5562 38.3214 40.6511C38.4269 40.7459 38.4785 40.9 38.476 41.1133C38.474 41.284 38.3436 41.488 38.0849 41.7254C37.8263 41.9521 37.4931 42.1743 37.0853 42.3919C36.6882 42.6094 36.2595 42.7899 35.7993 42.9334C35.3389 43.0876 34.906 43.1669 34.5007 43.1712C33.9247 43.1773 33.3825 43.0337 32.874 42.7405C32.3762 42.4472 31.9706 42.0196 31.6572 41.4577C31.3439 40.8851 31.1921 40.1882 31.2016 39.3669C31.2101 38.6417 31.3519 37.915 31.627 37.1868C31.9021 36.4587 32.2622 35.7564 32.7073 35.0798C33.1631 34.4031 33.661 33.7739 34.201 33.1923C34.7517 32.6105 35.3015 32.1035 35.8505 31.671C36.3994 31.2386 36.9099 30.9026 37.3819 30.663C37.8648 30.4126 38.2608 30.2857 38.5701 30.2824C38.7835 30.2802 38.9532 30.3583 39.0793 30.517C39.2162 30.6648 39.2836 30.8294 39.2815 31.0107C39.2803 31.1174 39.2471 31.2244 39.1818 31.3317C39.1272 31.439 39.0303 31.5253 38.8908 31.5908C38.1936 31.9394 37.4845 32.3842 36.7637 32.9251C36.0428 33.466 35.3745 34.081 34.7585 34.77C34.1428 35.4485 33.6436 36.1843 33.2611 36.9775C32.8787 37.7601 32.6825 38.5834 32.6724 39.4473C32.6637 40.1939 32.8331 40.7627 33.1805 41.1536C33.528 41.5338 34.0057 41.7207 34.6137 41.7143C34.9337 41.7109 35.265 41.6487 35.6077 41.5277C35.961 41.4067 36.2932 41.2698 36.6043 41.1172C36.9261 40.9538 37.205 40.8122 37.4411 40.6924C37.6878 40.5725 37.8698 40.5119 37.9871 40.5107ZM44.1457 43.4527C43.3244 43.4614 42.6822 43.2016 42.2191 42.6733C41.7668 42.1342 41.5463 41.3794 41.5576 40.4088C41.5646 39.8115 41.6527 39.112 41.822 38.3103C42.0021 37.4979 42.2254 36.6424 42.4918 35.7437C42.769 34.8343 43.0674 33.9353 43.3871 33.0467C43.7067 32.1582 44.0149 31.3337 44.3117 30.5734C44.6193 29.8023 44.8881 29.1595 45.118 28.6452C45.2494 28.3558 45.4324 28.2099 45.667 28.2074C45.987 28.204 46.1447 28.3997 46.1401 28.7943C46.1386 28.9223 46.0769 29.1842 45.955 29.5801C45.8331 29.976 45.6727 30.4683 45.4739 31.0569C45.2752 31.6349 45.0597 32.2771 44.8276 32.9834C44.5954 33.6898 44.3576 34.4175 44.1142 35.1666C43.8817 35.9049 43.6652 36.6378 43.4647 37.3651C43.2644 38.0817 43.1019 38.7553 42.9773 39.3859C42.8526 40.0164 42.7877 40.5557 42.7825 41.0036C42.7791 41.2916 42.8511 41.5201 42.9985 41.6892C43.1566 41.8475 43.369 41.9252 43.6356 41.9224C44.1263 41.9172 44.618 41.816 45.1109 41.6188C45.6146 41.4108 46.0974 41.1604 46.5594 40.8675C47.0215 40.564 47.4409 40.2663 47.8176 39.9743C48.205 39.6716 48.5332 39.4229 48.8021 39.228C49.0711 39.0225 49.2589 38.9192 49.3656 38.9181C49.6002 38.9156 49.7161 39.0424 49.7131 39.2983C49.7121 39.3837 49.6249 39.5446 49.4515 39.781C49.2783 40.0068 49.0458 40.2759 48.7542 40.5883C48.4627 40.9007 48.1229 41.2242 47.7351 41.5589C47.3581 41.8829 46.9599 42.191 46.5406 42.4834C46.132 42.765 45.7188 42.9934 45.3008 43.1685C44.8934 43.3541 44.5083 43.4488 44.1457 43.4527ZM49.1908 42.8392C48.9882 42.8414 48.8077 42.7686 48.6495 42.621C48.4913 42.4627 48.4142 42.2182 48.418 41.8876C48.4208 41.653 48.4566 41.3273 48.5254 40.9107C48.5944 40.4833 48.6851 40.0185 48.7976 39.516C48.9101 39.0136 49.0279 38.5164 49.1509 38.0246C49.2847 37.5219 49.418 37.0726 49.5505 36.6766C49.6831 36.2806 49.7985 35.9861 49.8968 35.7931C49.9838 35.6428 50.065 35.546 50.1401 35.5025C50.2259 35.459 50.3062 35.4368 50.3809 35.436C50.5302 35.4344 50.6576 35.481 50.7632 35.5759C50.8794 35.6707 50.9359 35.8567 50.9326 36.134C50.9308 36.294 50.8957 36.561 50.8273 36.935C50.7698 37.2982 50.6901 37.7256 50.5884 38.2173C50.4975 38.6981 50.3957 39.1951 50.2831 39.7082C50.1813 40.2105 50.0797 40.6915 49.9783 41.1512C49.877 41.6108 49.7979 41.9956 49.7409 42.3055C49.6963 42.4766 49.6201 42.6107 49.5123 42.7078C49.4153 42.7942 49.3081 42.838 49.1908 42.8392ZM50.8618 33.9752C50.6165 33.9778 50.3827 33.9056 50.1604 33.7587C49.9489 33.6116 49.845 33.3727 49.8488 33.0421C49.8521 32.7648 49.9187 32.5401 50.0487 32.3681C50.1893 32.196 50.3507 32.0716 50.5329 31.995C50.7259 31.9077 50.8917 31.8633 51.0304 31.8618C51.169 31.8603 51.3233 31.8907 51.4932 31.9528C51.6739 32.0042 51.8274 32.1093 51.9535 32.2679C52.0797 32.4159 52.1411 32.6392 52.1376 32.9378C52.1353 33.1405 52.0638 33.3225 51.9233 33.484C51.7829 33.6348 51.6109 33.7539 51.4072 33.8414C51.2143 33.9288 51.0324 33.9734 50.8618 33.9752ZM55.1152 42.9203C54.5925 42.9258 54.1406 42.8133 53.7594 42.5827C53.3889 42.3414 53.1046 42.0298 52.9064 41.648C52.7082 41.2662 52.6115 40.8726 52.6162 40.4673C52.6261 39.614 52.7845 38.8338 53.0914 38.1267C53.3984 37.4089 53.779 36.7756 54.2333 36.2269C54.6984 35.6674 55.1732 35.1931 55.6576 34.8041C56.1528 34.4149 56.5987 34.1222 56.9956 33.926C57.4033 33.7191 57.6925 33.6147 57.8631 33.6129C58.2044 33.6092 58.3731 33.7781 58.3691 34.1194C58.3673 34.2794 58.2584 34.4672 58.0426 34.6828C57.8269 34.8877 57.5522 35.1305 57.2183 35.4114C56.8844 35.6922 56.5288 36.0106 56.1513 36.3665C55.7741 36.7118 55.4175 37.1048 55.0818 37.5457C54.7462 37.9758 54.4686 38.4587 54.2491 38.9942C54.0297 39.5191 53.9163 40.0962 53.909 40.7255C53.9015 41.3655 54.1591 41.6827 54.6817 41.6771C55.1617 41.672 55.6534 41.5761 56.1568 41.3895C56.6709 41.2027 57.1749 40.9628 57.6689 40.6696C58.1737 40.3656 58.6573 40.0512 59.1197 39.7264C59.582 39.4015 60.0016 39.0931 60.3782 38.8012C60.755 38.4986 61.0725 38.2552 61.3306 38.0712C61.5887 37.8871 61.771 37.7946 61.8777 37.7934C62.091 37.7912 62.1963 37.9074 62.1936 38.142C62.1915 38.3233 62.066 38.5646 61.8172 38.8659C61.5684 39.1671 61.234 39.4959 60.8139 39.8523C60.3938 40.2087 59.9257 40.571 59.4095 40.939C58.8934 41.2965 58.3723 41.6273 57.8462 41.9315C57.3202 42.225 56.8162 42.465 56.3341 42.6514C55.8628 42.827 55.4565 42.9167 55.1152 42.9203ZM68.5346 43.4017C67.8414 43.409 67.2033 43.2505 66.6205 42.9261C66.0484 42.6015 65.5308 42.1805 65.0675 41.6628C64.615 41.145 64.2109 40.5894 63.8552 39.996C63.5103 39.3918 63.2129 38.8244 62.9632 38.2938C62.7718 39.1597 62.6196 39.8598 62.5068 40.3943C62.4046 40.9286 62.3198 41.3347 62.2526 41.6127C62.1961 41.8906 62.1406 42.0778 62.0861 42.1744C62.0317 42.2709 61.9618 42.3197 61.8764 42.3206C61.6418 42.3231 61.4193 42.1975 61.209 41.9437C60.9986 41.69 60.8958 41.3605 60.9005 40.9552C60.9055 40.5286 60.9867 39.9625 61.1443 39.2569C61.3019 38.5407 61.5084 37.7494 61.7638 36.8828C62.03 36.0055 62.3338 35.1011 62.6753 34.1697C63.0168 33.2275 63.3688 32.312 63.7311 31.423C64.1042 30.5232 64.4763 29.7034 64.8475 28.9636C65.0331 28.599 65.1905 28.3627 65.3197 28.2547C65.4596 28.1466 65.6255 28.0915 65.8175 28.0894C66.1269 28.0862 66.2798 28.2285 66.2765 28.5165C66.2752 28.6231 66.2419 28.7408 66.1764 28.8695C66.1216 28.998 66.0612 29.1427 65.9954 29.3033C65.7979 29.7747 65.5784 30.3049 65.3369 30.894C65.1061 31.483 64.8697 32.0987 64.6276 32.7412C64.3961 33.3835 64.1754 34.0204 63.9654 34.6519C63.7554 35.2833 63.5727 35.8665 63.4171 36.4013C63.8795 36.0765 64.4219 35.7508 65.0442 35.4243C65.6666 35.0977 66.3099 34.8029 66.9742 34.5399C67.6386 34.2663 68.265 34.0463 68.8535 33.8801C69.442 33.7139 69.9283 33.6287 70.3122 33.6246C70.5149 33.6225 70.6688 33.6848 70.774 33.8117C70.8899 33.9278 70.947 34.0605 70.9453 34.2098C70.9439 34.3271 70.9052 34.4449 70.8292 34.563C70.764 34.6703 70.6242 34.7678 70.4099 34.8554C69.7031 35.1082 69.0015 35.3662 68.3052 35.6296C67.6091 35.8823 66.8807 36.1566 66.12 36.4526C65.3702 36.7379 64.5504 37.0772 63.6606 37.4706C63.9325 37.9369 64.2519 38.4401 64.6189 38.9801C64.986 39.5094 65.38 40.0118 65.8011 40.4872C66.2223 40.952 66.655 41.3367 67.0994 41.6412C67.5439 41.9351 67.9901 42.0797 68.4381 42.0749C69.0248 42.0687 69.5915 41.94 70.1383 41.6889C70.6851 41.4379 71.1899 41.1339 71.6527 40.777C72.1261 40.4201 72.5407 40.0744 72.8965 39.74C73.2525 39.395 73.5329 39.1254 73.7378 38.9312C73.8456 38.8341 73.9423 38.7691 74.028 38.7362C74.1245 38.6925 74.2101 38.6703 74.2847 38.6695C74.4341 38.6679 74.5345 38.7468 74.5859 38.9062C74.6482 39.0549 74.5929 39.2208 74.4202 39.4039C74.2904 39.5546 74.0904 39.786 73.8202 40.0981C73.5499 40.4103 73.2206 40.7551 72.8323 41.1324C72.4548 41.499 72.0347 41.8554 71.5721 42.2016C71.1201 42.5477 70.6316 42.8302 70.1065 43.049C69.5919 43.2784 69.068 43.396 68.5346 43.4017ZM78.505 37.3289C78.2172 37.3106 78.0861 37.1254 78.1115 36.7732C78.1232 36.6878 78.183 36.5858 78.2911 36.4674C78.3992 36.3382 78.5227 36.2676 78.6615 36.2555C78.9925 36.22 79.3983 36.1677 79.8791 36.0986C80.3706 36.0187 80.9102 35.9276 81.498 35.8254C81.6107 35.3017 81.7451 34.751 81.9011 34.1735C82.0572 33.5959 82.229 33.0342 82.4167 32.4883C82.6045 31.9317 82.8023 31.4284 83.0102 30.9783C83.218 30.5282 83.4355 30.1739 83.6624 29.9156C83.7811 29.797 83.8887 29.7159 83.9852 29.6722C84.0818 29.6178 84.1675 29.5903 84.2421 29.5895C84.3914 29.5879 84.508 29.6506 84.5919 29.7777C84.6864 29.9047 84.7327 30.0482 84.7308 30.2082C84.7298 30.2935 84.7128 30.379 84.6798 30.4646C84.4596 31.0642 84.2217 31.8026 83.9662 32.6798C83.7107 33.557 83.4382 34.5144 83.1488 35.5519C84.132 35.3815 85.1153 35.2005 86.0986 35.0087C87.082 34.817 87.9266 34.6427 88.6323 34.4859C88.8359 34.3984 88.9904 34.4128 89.0957 34.529C89.2117 34.645 89.269 34.7618 89.2676 34.8791C89.2658 35.0284 89.2219 35.1408 89.1357 35.2164C89.0601 35.2919 88.9794 35.3567 88.8935 35.4109L88.8773 35.4271C88.663 35.5147 88.3418 35.6194 87.9138 35.7413C87.4859 35.8525 86.9939 35.975 86.4378 36.1089C85.8818 36.2321 85.2884 36.3557 84.6578 36.4797C84.0378 36.6036 83.4232 36.7168 82.8141 36.8192C82.5579 37.7605 82.296 38.7284 82.0285 39.723C81.7717 40.7069 81.5151 41.6748 81.2588 42.6267C81.1476 43.0118 81.0222 43.253 80.8824 43.3505C80.7532 43.4585 80.6139 43.5133 80.4646 43.5149C80.2939 43.5167 80.1453 43.4543 80.0188 43.3277C79.903 43.2009 79.89 42.9398 79.98 42.5443L81.2114 37.0762C80.5704 37.179 80.0042 37.2543 79.5131 37.3022C79.0326 37.35 78.6966 37.3589 78.505 37.3289ZM89.0915 42.4955C88.4622 42.5022 87.969 42.2675 87.612 41.7913C87.2549 41.3152 87.0809 40.6932 87.0898 39.9252C87.093 39.6479 87.1338 39.3542 87.2121 39.0441C87.3011 38.7232 87.4111 38.4341 87.5421 38.1768C87.4683 38.1029 87.4108 38.0022 87.3697 37.8747C87.3286 37.7365 87.3093 37.566 87.3116 37.3634C87.319 36.7341 87.4323 36.157 87.6517 35.6321C87.8711 35.1072 88.1591 34.6509 88.5155 34.2632C88.8721 33.8648 89.265 33.5567 89.6941 33.3388C90.1339 33.1209 90.5778 33.0095 91.0257 33.0048C91.7617 32.9969 92.3559 33.2573 92.8083 33.7857C93.2609 34.3034 93.4809 35.101 93.4683 36.1782C93.4617 36.7435 93.3697 37.3204 93.1922 37.9088C93.0254 38.4971 92.7948 39.0648 92.5005 39.6118C92.2168 40.1587 91.8859 40.6475 91.5076 41.0781C91.14 41.5086 90.7467 41.854 90.3277 42.1144C89.9196 42.3641 89.5075 42.4911 89.0915 42.4955ZM88.6044 37.6216C88.6674 37.7062 88.6981 37.8179 88.6965 37.9566C88.6946 38.1165 88.6607 38.2769 88.5949 38.4375C88.5397 38.5981 88.4785 38.8174 88.4112 39.0954C88.344 39.3734 88.3074 39.7683 88.3015 40.2803C88.2955 40.7923 88.4952 41.0461 88.9005 41.0418C89.3485 41.037 89.7665 40.8566 90.1546 40.5006C90.5428 40.1339 90.8895 39.6663 91.1947 39.0978C91.5 38.5293 91.7363 37.9243 91.9037 37.2826C92.082 36.6302 92.1744 36.016 92.1812 35.44C92.1855 35.0667 92.1192 34.8061 91.9823 34.6583C91.8455 34.4998 91.5958 34.4224 91.2331 34.4263C90.8598 34.4303 90.469 34.5624 90.0607 34.8227C89.6632 35.0722 89.3287 35.4117 89.057 35.8411C88.7854 36.2706 88.6465 36.752 88.6403 37.2853C88.6389 37.4026 88.627 37.5147 88.6044 37.6216ZM19.2653 65.2968C18.7427 65.3023 18.2907 65.1898 17.9095 64.9592C17.539 64.7179 17.2547 64.4063 17.0565 64.0245C16.8583 63.6426 16.7616 63.2491 16.7663 62.8438C16.7763 61.9905 16.9347 61.2103 17.2415 60.5032C17.5485 59.7854 17.9291 59.1521 18.3834 58.6034C18.8485 58.0439 19.3233 57.5696 19.8078 57.1805C20.3029 56.7914 20.7489 56.4987 21.1458 56.3025C21.5534 56.0955 21.8426 55.9912 22.0133 55.9894C22.3546 55.9857 22.5232 56.1546 22.5193 56.4959C22.5174 56.6559 22.4086 56.8437 22.1928 57.0592C21.9771 57.2642 21.7023 57.507 21.3684 57.7879C21.0345 58.0687 20.6789 58.3871 20.3015 58.743C19.9242 59.0883 19.5677 59.4813 19.2319 59.9221C18.8963 60.3523 18.6187 60.8351 18.3992 61.3707C18.1798 61.8956 18.0664 62.4727 18.0591 63.102C18.0516 63.7419 18.3092 64.0591 18.8319 64.0536C19.3118 64.0485 19.8035 63.9526 20.307 63.766C20.821 63.5792 21.3251 63.3393 21.8191 63.0461C22.3239 62.7421 22.8074 62.4277 23.2698 62.1028C23.7322 61.778 24.1517 61.4696 24.5283 61.1776C24.9051 60.875 25.2226 60.6317 25.4807 60.4477C25.7388 60.2636 25.9212 60.171 26.0278 60.1699C26.2411 60.1676 26.3464 60.2838 26.3437 60.5185C26.3416 60.6998 26.2161 60.9411 25.9673 61.2423C25.7185 61.5436 25.3841 61.8724 24.964 62.2288C24.5439 62.5852 24.0758 62.9474 23.5596 63.3155C23.0435 63.6729 22.5225 64.0037 21.9963 64.3079C21.4703 64.6015 20.9663 64.8414 20.4842 65.0279C20.0129 65.2035 19.6066 65.2931 19.2653 65.2968ZM27.1675 65.1489C26.5382 65.1555 26.045 64.9208 25.688 64.4447C25.3309 63.9686 25.1568 63.3466 25.1658 62.5786C25.169 62.3013 25.2098 62.0076 25.288 61.6975C25.3771 61.3766 25.4871 61.0875 25.6181 60.8301C25.5443 60.7563 25.4868 60.6556 25.4456 60.528C25.4046 60.3898 25.3852 60.2194 25.3876 60.0167C25.3949 59.3874 25.5083 58.8104 25.7277 58.2855C25.9471 57.7606 26.235 57.3043 26.5915 56.9165C26.9481 56.5182 27.3409 56.2101 27.7701 55.9922C28.2098 55.7742 28.6537 55.6629 29.1017 55.6581C29.8377 55.6503 30.4319 55.9106 30.8843 56.439C31.3368 56.9568 31.5568 57.7543 31.5443 58.8316C31.5377 59.3969 31.4457 59.9737 31.2682 60.5622C31.1014 61.1505 30.8708 61.7182 30.5765 62.2652C30.2928 62.8121 29.9618 63.3009 29.5836 63.7315C29.2159 64.162 28.8227 64.5074 28.4037 64.7678C27.9955 65.0174 27.5835 65.1444 27.1675 65.1489ZM26.6804 60.275C26.7434 60.3596 26.774 60.4713 26.7724 60.6099C26.7706 60.7699 26.7367 60.9302 26.6708 61.0909C26.6157 61.2515 26.5544 61.4707 26.4872 61.7487C26.42 62.0267 26.3834 62.4217 26.3774 62.9337C26.3715 63.4456 26.5711 63.6995 26.9765 63.6952C27.4244 63.6904 27.8425 63.51 28.2305 63.1539C28.6187 62.7872 28.9655 62.3196 29.2707 61.7512C29.5759 61.1827 29.8123 60.5776 29.9797 59.936C30.1579 59.2835 30.2504 58.6693 30.2571 58.0934C30.2615 57.7201 30.1952 57.4595 30.0583 57.3117C29.9215 57.1531 29.6718 57.0758 29.3091 57.0797C28.9358 57.0836 28.545 57.2157 28.1367 57.476C27.7392 57.7255 27.4046 58.065 27.133 58.4945C26.8614 58.924 26.7225 59.4053 26.7163 59.9386C26.7149 60.056 26.7029 60.1681 26.6804 60.275ZM33.9862 64.5485C33.6769 64.5518 33.4017 64.3788 33.1604 64.0294C32.9192 63.68 32.8018 63.228 32.8083 62.6734C32.8154 62.0655 32.903 61.414 33.071 60.719C33.2498 60.0239 33.466 59.3177 33.7196 58.6005C33.9734 57.8726 34.2215 57.1715 34.464 56.497C34.5189 56.3578 34.5948 56.2557 34.6915 56.1907C34.799 56.1149 34.9595 56.0758 35.1728 56.0736C35.5568 56.0695 35.7466 56.2541 35.7422 56.6274C35.7412 56.7127 35.6963 56.9052 35.6075 57.2047C35.5187 57.5043 35.4024 57.8734 35.2587 58.3122C35.1256 58.7509 34.9867 59.2269 34.8421 59.7404C34.6976 60.2431 34.5691 60.7511 34.4564 61.2642C34.3438 61.7773 34.2636 62.2527 34.2159 62.6905C34.3886 62.5073 34.5838 62.228 34.8015 61.8524C35.0298 61.4767 35.2747 61.0529 35.5362 60.5808C35.7978 60.0982 36.07 59.6154 36.3529 59.1324C36.636 58.6389 36.9185 58.188 37.2005 57.7797C37.4934 57.3607 37.7745 57.0271 38.044 56.7789C38.3243 56.52 38.5818 56.3893 38.8165 56.3868C39.1578 56.3832 39.4445 56.4868 39.6767 56.6976C39.9197 56.8977 40.1021 57.2583 40.224 57.7796C40.3567 58.2901 40.4176 59.0146 40.4066 59.9532C40.4008 60.4545 40.4433 60.9233 40.5342 61.3596C40.6358 61.7958 40.797 62.146 41.0179 62.4103C41.2496 62.6638 41.5467 62.7886 41.9094 62.7847C42.4533 62.779 42.9398 62.6778 43.3686 62.4813C43.7976 62.2741 44.1682 62.0462 44.4804 61.7976C44.8034 61.5382 45.0726 61.3114 45.2882 61.1172C45.5039 60.9122 45.6704 60.8092 45.7877 60.8079C46.033 60.8053 46.1542 60.932 46.1512 61.188C46.15 61.2946 46.068 61.4661 45.9053 61.7025C45.7533 61.9281 45.537 62.1863 45.2564 62.4772C44.9865 62.7574 44.674 63.0327 44.3189 63.303C43.9746 63.5626 43.6041 63.7799 43.2075 63.9547C42.8215 64.1295 42.4312 64.2189 42.0366 64.2231C41.3006 64.2309 40.6997 64.0933 40.2337 63.8103C39.7784 63.5272 39.4427 63.0562 39.2264 62.3973C39.0207 61.7383 38.9244 60.8541 38.9373 59.7449C38.9444 59.1369 38.9122 58.6947 38.8408 58.4182C38.7802 58.1309 38.6597 57.9402 38.4795 57.8461C38.3489 58.0714 38.1799 58.3932 37.9724 58.8113C37.765 59.2188 37.5251 59.6746 37.2526 60.1787C36.9907 60.6827 36.7129 61.1922 36.4189 61.7073C36.1358 62.2115 35.8477 62.6785 35.5547 63.1082C35.2618 63.5379 34.9804 63.8874 34.7107 64.1569C34.441 64.4157 34.1996 64.5463 33.9862 64.5485ZM43.5613 59.6958C43.2736 59.6775 43.1424 59.4923 43.1679 59.1401C43.1795 59.0546 43.2394 58.9527 43.3474 58.8342C43.4555 58.7051 43.579 58.6345 43.7178 58.6223C44.0488 58.5868 44.4547 58.5345 44.9354 58.4654C45.4269 58.3855 45.9665 58.2945 46.5543 58.1923C46.667 57.6685 46.8014 57.1179 46.9575 56.5403C47.1135 55.9628 47.2853 55.401 47.473 54.8552C47.6608 54.2986 47.8586 53.7953 48.0665 53.3451C48.2744 52.895 48.4918 52.5408 48.7188 52.2824C48.8374 52.1638 48.945 52.0827 49.0415 52.039C49.1381 51.9847 49.2238 51.9571 49.2985 51.9563C49.4478 51.9547 49.5644 52.0175 49.6482 52.1446C49.7427 52.2715 49.789 52.415 49.7872 52.575C49.7862 52.6603 49.7692 52.7458 49.7362 52.8315C49.5159 53.4311 49.278 54.1694 49.0225 55.0467C48.767 55.9239 48.4945 56.8813 48.2052 57.9188C49.1883 57.7484 50.1716 57.5673 51.155 57.3756C52.1384 57.1838 52.9829 57.0096 53.6886 56.8528C53.8923 56.7653 54.0467 56.7796 54.152 56.8958C54.268 57.0119 54.3253 57.1286 54.3239 57.2459C54.3222 57.3953 54.2782 57.5077 54.192 57.5833C54.1165 57.6587 54.0357 57.7236 53.9498 57.7778L53.9336 57.794C53.7193 57.8816 53.3981 57.9863 52.9701 58.1081C52.5422 58.2193 52.0502 58.3419 51.4941 58.4758C50.9381 58.599 50.3448 58.7226 49.7141 58.8466C49.0941 58.9705 48.4796 59.0837 47.8705 59.1861C47.6142 60.1273 47.3523 61.0952 47.0848 62.0899C46.828 63.0738 46.5715 64.0416 46.3151 64.9935C46.204 65.3786 46.0785 65.6199 45.9387 65.7174C45.8095 65.8254 45.6702 65.8802 45.5209 65.8818C45.3502 65.8836 45.2017 65.8212 45.0751 65.6945C44.9593 65.5678 44.9464 65.3067 45.0363 64.9111L46.2678 59.4431C45.6267 59.5459 45.0606 59.6212 44.5694 59.6691C44.089 59.7168 43.7529 59.7257 43.5613 59.6958ZM52.7627 65.133C52.3574 65.1373 52.0236 64.9542 51.7613 64.5837C51.5097 64.2025 51.3875 63.7079 51.3946 63.0999C51.4012 62.5346 51.5464 61.9732 51.8302 61.4156C52.1246 60.8579 52.5095 60.3206 52.9847 59.8037C53.46 59.2867 53.9774 58.812 54.537 58.3795C55.0968 57.9363 55.6558 57.5517 56.2142 57.2259C56.7832 56.8999 57.3034 56.6437 57.7749 56.4574C58.2463 56.2711 58.6206 56.1765 58.898 56.1736C59.0473 56.172 59.1696 56.2027 59.2648 56.2656C59.3602 56.318 59.407 56.4188 59.4053 56.5681C59.4042 56.6641 59.3658 56.7551 59.2901 56.8413C59.3008 56.8412 59.3114 56.841 59.3221 56.8409C59.5568 56.8384 59.6725 56.9758 59.6692 57.2532C59.6681 57.3492 59.6285 57.5469 59.5504 57.8463C59.4723 58.1351 59.3828 58.4986 59.2817 58.937C59.1806 59.3753 59.0896 59.8615 59.0088 60.3956C58.928 60.919 58.8845 61.4527 58.8781 61.9967C58.8728 62.4553 59.0461 62.6827 59.3981 62.679C59.7927 62.6748 60.1938 62.5799 60.6012 62.3943C61.0086 62.2087 61.4058 61.9858 61.7928 61.7257C62.1798 61.455 62.5349 61.19 62.8578 60.9306C63.1809 60.6605 63.4555 60.4337 63.6816 60.25C63.9077 60.0663 64.0688 59.9739 64.1647 59.9729C64.2501 59.972 64.3244 59.9979 64.3878 60.0505C64.4512 60.1032 64.4822 60.1881 64.4808 60.3055C64.4796 60.4121 64.3707 60.6052 64.1541 60.8848C63.9376 61.1644 63.6513 61.4821 63.2952 61.8378C62.9391 62.1935 62.5405 62.539 62.0993 62.8743C61.6582 63.2096 61.207 63.4863 60.7459 63.7045C60.2848 63.9227 59.8462 64.034 59.4302 64.0384C59.1103 64.0418 58.8181 63.9489 58.5536 63.7598C58.3 63.5598 58.096 63.2207 57.9416 62.7425C57.7979 62.2641 57.7309 61.6036 57.7407 60.761L57.7454 60.361C57.2127 61.2305 56.6542 62.0256 56.0699 62.7463C55.4963 63.467 54.9243 64.0436 54.354 64.4762C53.7944 64.9088 53.264 65.1277 52.7627 65.133ZM58.5806 57.3287C58.527 57.3506 58.4519 57.3834 58.3555 57.4271C57.8622 57.6563 57.347 57.939 56.8099 58.2753C56.2834 58.6115 55.7671 58.9849 55.2611 59.3956C54.7657 59.8061 54.3182 60.2321 53.9184 60.6736C53.5187 61.1151 53.1989 61.5611 52.959 62.0115C52.7191 62.462 52.5967 62.9005 52.5918 63.3272C52.5901 63.4658 52.6156 63.5722 52.668 63.6463C52.7311 63.7203 52.8374 63.7565 52.9867 63.7549C53.2 63.7526 53.4789 63.6164 53.8233 63.3461C54.1679 63.0651 54.5454 62.6985 54.9559 62.2463C55.3771 61.7939 55.7989 61.2935 56.2212 60.7451C56.6435 60.1967 57.0445 59.6432 57.4243 59.0847C57.8148 58.5259 58.1514 58.0105 58.4341 57.5382C58.4777 57.4631 58.5265 57.3933 58.5806 57.3287ZM65.5346 64.8054C65.0119 64.811 64.56 64.6985 64.1787 64.4679C63.8083 64.2265 63.524 63.9149 63.3258 63.5331C63.1276 63.1513 63.0309 62.7577 63.0356 62.3524C63.0455 61.4992 63.2039 60.719 63.5108 60.0118C63.8178 59.294 64.1984 58.6608 64.6527 58.1121C65.1178 57.5526 65.5926 57.0783 66.077 56.6892C66.5721 56.3 67.0181 56.0073 67.415 55.8112C67.8227 55.6042 68.1119 55.4998 68.2825 55.498C68.6238 55.4944 68.7925 55.6632 68.7885 56.0045C68.7867 56.1645 68.6778 56.3523 68.462 56.5679C68.2463 56.7728 67.9716 57.0157 67.6377 57.2965C67.3038 57.5773 66.9482 57.8957 66.5707 58.2517C66.1935 58.5969 65.8369 58.99 65.5012 59.4308C65.1656 59.8609 64.888 60.3438 64.6685 60.8794C64.4491 61.4043 64.3357 61.9814 64.3284 62.6106C64.3209 63.2506 64.5785 63.5678 65.1011 63.5623C65.5811 63.5572 66.0728 63.4613 66.5762 63.2746C67.0903 63.0879 67.5943 62.8479 68.0883 62.5547C68.5931 62.2508 69.0767 61.9363 69.5391 61.6115C70.0014 61.2866 70.4209 60.9783 70.7976 60.6863C71.1744 60.3837 71.4918 60.1404 71.7499 59.9563C72.008 59.7723 72.1904 59.6797 72.2971 59.6786C72.5104 59.6763 72.6157 59.7925 72.613 60.0272C72.6109 60.2085 72.4854 60.4498 72.2366 60.751C71.9878 61.0523 71.6534 61.3811 71.2333 61.7375C70.8132 62.0939 70.3451 62.4561 69.8289 62.8242C69.3128 63.1816 68.7917 63.5124 68.2656 63.8166C67.7396 64.1101 67.2356 64.3501 66.7535 64.5365C66.2822 64.7122 65.8759 64.8018 65.5346 64.8054ZM70.1042 59.4139C69.8165 59.3956 69.6853 59.2104 69.7107 58.8582C69.7224 58.7728 69.7822 58.6708 69.8903 58.5524C69.9984 58.4232 70.1219 58.3526 70.2607 58.3405C70.5917 58.3049 70.9976 58.2526 71.4783 58.1836C71.9698 58.1037 72.5094 58.0126 73.0972 57.9104C73.2099 57.3866 73.3443 56.836 73.5003 56.2584C73.6564 55.6809 73.8282 55.1192 74.0159 54.5733C74.2037 54.0167 74.4015 53.5134 74.6094 53.0633C74.8172 52.6132 75.0347 52.2589 75.2616 52.0006C75.3803 51.882 75.4879 51.8009 75.5844 51.7572C75.681 51.7028 75.7667 51.6753 75.8413 51.6745C75.9907 51.6729 76.1072 51.7356 76.1911 51.8627C76.2856 51.9897 76.3319 52.1332 76.33 52.2932C76.329 52.3785 76.312 52.464 76.2791 52.5496C76.0588 53.1492 75.8209 53.8876 75.5654 54.7648C75.3099 55.642 75.0374 56.5994 74.7481 57.6369C75.7312 57.4665 76.7145 57.2854 77.6979 57.0937C78.6812 56.902 79.5258 56.7277 80.2315 56.5709C80.4351 56.4834 80.5896 56.4978 80.6949 56.614C80.8109 56.73 80.8682 56.8467 80.8668 56.9641C80.8651 57.1134 80.8211 57.2258 80.7349 57.3014C80.6594 57.3769 80.5786 57.4417 80.4927 57.4959L80.4765 57.5121C80.2622 57.5997 79.941 57.7044 79.513 57.8263C79.0851 57.9375 78.5931 58.06 78.037 58.1939C77.481 58.3171 76.8876 58.4407 76.257 58.5647C75.637 58.6886 75.0224 58.8018 74.4133 58.9042C74.1571 59.8455 73.8952 60.8134 73.6277 61.808C73.3709 62.7919 73.1143 63.7598 72.858 64.7117C72.7468 65.0968 72.6214 65.338 72.4816 65.4355C72.3524 65.5435 72.2131 65.5983 72.0638 65.5999C71.8931 65.6017 71.7445 65.5393 71.618 65.4127C71.5022 65.2859 71.4892 65.0248 71.5792 64.6292L72.8106 59.1612C72.1696 59.264 71.6035 59.3393 71.1123 59.3872C70.6318 59.435 70.2958 59.4439 70.1042 59.4139ZM91.079 64.6941C90.8977 64.6961 90.744 64.6177 90.6178 64.4591C90.4917 64.3004 90.4304 64.0665 90.434 63.7572C90.4383 63.3945 90.4976 62.8767 90.6121 62.2036C90.7373 61.5304 90.9183 60.6379 91.1552 59.5263C90.8593 60.212 90.5318 60.8607 90.1727 61.4724C89.8243 62.084 89.4559 62.5838 89.0674 62.9718C88.679 63.3599 88.2821 63.5561 87.8768 63.5604C87.4822 63.5645 87.132 63.4136 86.8263 63.1076C86.5312 62.8015 86.3882 62.2591 86.3973 61.4805C86.4024 61.0432 86.4454 60.5521 86.5264 60.0074C86.6076 59.452 86.71 58.9016 86.8336 58.3564C86.9573 57.8112 87.0803 57.3247 87.2026 56.8968C87.325 56.4582 87.4354 56.1371 87.5337 55.9335C87.6104 55.762 87.6863 55.6492 87.7616 55.5951C87.837 55.5303 87.9387 55.4972 88.0667 55.4959C88.2161 55.4943 88.3753 55.5566 88.5445 55.6828C88.7136 55.809 88.7965 56.0214 88.793 56.32C88.7921 56.3947 88.7527 56.5711 88.6749 56.8492C88.6077 57.1165 88.5186 57.448 88.4073 57.8438C88.3068 58.2288 88.2007 58.6459 88.0888 59.095C87.9769 59.5441 87.881 59.993 87.8012 60.4418C87.7319 60.8904 87.6952 61.3014 87.6908 61.6747C87.6884 61.8773 87.7079 62.0424 87.749 62.17C87.7902 62.2975 87.8961 62.3604 88.0668 62.3586C88.2161 62.357 88.4045 62.2057 88.632 61.9047C88.8701 61.6035 89.1253 61.2062 89.3977 60.7127C89.6809 60.2085 89.97 59.6509 90.265 59.0399C90.5708 58.4287 90.866 57.8017 91.1508 57.1588C91.4462 56.5158 91.7146 55.9051 91.956 55.3266C92.0436 55.1337 92.1356 55.0154 92.2321 54.9717C92.3287 54.9174 92.4357 54.8896 92.553 54.8884C92.745 54.8863 92.9147 54.9645 93.0622 55.1229C93.2204 55.2705 93.2981 55.467 93.2953 55.7123C93.2934 55.8723 93.2582 56.15 93.1896 56.5453C93.1317 56.9405 93.0463 57.4053 92.9334 57.9397C92.8313 58.4634 92.7128 59.0192 92.578 59.6072C92.4539 60.1951 92.3298 60.7776 92.2057 61.3548C92.0818 61.9213 91.9638 62.4398 91.8517 62.9103C91.7502 63.3806 91.6658 63.7601 91.5984 64.0487C91.542 64.3159 91.4654 64.4874 91.3685 64.5631C91.2822 64.6493 91.1857 64.693 91.079 64.6941ZM97.0848 64.5984C96.8502 64.6008 96.6696 64.5334 96.5433 64.3961C96.4274 64.2694 96.3705 64.1207 96.3725 63.95C96.3742 63.8007 96.4398 63.6614 96.5693 63.532C96.7096 63.3919 96.8977 63.2673 97.1336 63.1581C97.5628 62.9296 97.9654 62.7014 98.3413 62.4734C98.7279 62.2454 99.04 62.0021 99.2777 61.7436C99.5153 61.4851 99.6358 61.2119 99.6392 60.9239C99.642 60.6786 99.5642 60.4928 99.4057 60.3665C99.2473 60.2296 99.0295 60.1626 98.7522 60.1655C98.5922 60.1672 98.3678 60.2016 98.0791 60.2686C97.7905 60.325 97.4751 60.3924 97.1329 60.4706C96.8015 60.5381 96.4754 60.6056 96.1547 60.673C95.8341 60.7297 95.5618 60.7593 95.3378 60.7616C94.9325 60.766 94.6296 60.6732 94.4292 60.4834C94.2289 60.2828 94.1308 60.0119 94.1347 59.6706C94.1367 59.5 94.241 59.2429 94.4477 58.8995C94.6543 58.556 94.9254 58.1745 95.2609 57.755C95.6071 57.3248 95.9854 56.8942 96.3957 56.4632C96.806 56.0323 97.2212 55.6333 97.6414 55.2662C98.0723 54.8991 98.4704 54.6016 98.8356 54.3737C99.2115 54.1458 99.5222 54.0305 99.7675 54.0279C100.013 54.0253 100.199 54.1033 100.325 54.2619C100.451 54.4206 100.512 54.6225 100.51 54.8678C100.507 55.0598 100.473 55.2255 100.408 55.3648C100.342 55.4935 100.208 55.5962 100.004 55.6731C99.8114 55.7498 99.5123 55.7956 99.1068 55.8106C98.687 56.1456 98.2399 56.529 97.7657 56.9606C97.3022 57.3814 96.8758 57.8179 96.4866 58.2699C96.1082 58.7112 95.8313 59.1354 95.656 59.5425C96.0093 59.4214 96.4371 59.3156 96.9394 59.2249C97.4525 59.1235 97.9704 59.07 98.493 59.0645C99.3143 59.0557 99.9201 59.2359 100.31 59.6051C100.711 59.9634 100.909 60.4412 100.902 61.0385C100.897 61.4225 100.77 61.8237 100.52 62.2423C100.28 62.6501 99.9665 63.032 99.5785 63.3881C99.1904 63.7442 98.7764 64.0312 98.3366 64.2491C97.8967 64.4778 97.4794 64.5942 97.0848 64.5984ZM103.946 60.2223C103.85 60.2233 103.765 60.1763 103.691 60.0811C103.628 59.9751 103.598 59.8368 103.6 59.6661C103.603 59.4315 103.65 59.063 103.741 58.5608C103.843 58.0478 103.972 57.4546 104.13 56.781C104.298 56.0967 104.487 55.3855 104.698 54.6474C104.92 53.9092 105.153 53.1869 105.395 52.4804C105.638 51.7633 105.881 51.1262 106.122 50.5691C106.286 50.1941 106.485 50.0053 106.72 50.0028C106.965 50.0002 107.188 50.1152 107.388 50.3477C107.588 50.5802 107.686 50.8671 107.682 51.2084C107.68 51.3364 107.614 51.577 107.482 51.9304C107.36 52.2836 107.195 52.7119 106.987 53.2154C106.789 53.7187 106.569 54.2596 106.328 54.8381C106.086 55.4165 105.84 56.0057 105.587 56.6056C105.346 57.1947 105.121 57.7517 104.912 58.2764C104.703 58.8012 104.538 59.2562 104.416 59.6414C104.339 59.8769 104.268 60.0323 104.203 60.1076C104.138 60.183 104.052 60.2212 103.946 60.2223ZM102.946 65C102.786 65.0017 102.622 64.9128 102.453 64.7333C102.285 64.5538 102.204 64.1867 102.21 63.6321C102.214 63.3228 102.318 63.0924 102.522 62.9409C102.727 62.7788 102.989 62.696 103.309 62.6926C103.853 62.6868 104.122 62.9666 104.115 63.5319C104.112 63.7985 104.045 64.0392 103.915 64.2539C103.784 64.4792 103.627 64.6569 103.444 64.7868C103.272 64.9272 103.106 64.9983 102.946 65Z" fill="#D5D6D7"/>
</svg>
