<svg width="116" height="105" viewBox="0 0 116 105" fill="none" xmlns="http://www.w3.org/2000/svg">
<path d="M59.4574 45.5C60.3624 35.9792 67.462 26.5002 72.8027 21.5C81.2486 12.5002 94.381 10.2358 106.316 7.76602M98.9463 2.82365C101.484 4.87909 105.124 6.2768 110.112 7.24343C105.601 9.96327 103.656 11.5778 101.599 15.419" stroke="#D5D6D7" stroke-width="1.5" stroke-miterlimit="1.5" stroke-linecap="round" stroke-linejoin="round"/>
<path d="M8.68116 66.4998C8.10964 66.4281 7.58499 66.2278 7.10719 65.8991C6.6294 65.5704 6.25894 65.1477 5.99583 64.6309C5.73393 64.1035 5.64105 63.506 5.7172 62.8383C5.78127 62.2767 5.98715 61.6951 6.33485 61.0938C6.69434 60.4832 7.13381 59.8773 7.65327 59.276C8.18452 58.6654 8.74858 58.0966 9.34545 57.5696C9.94353 57.0319 10.5232 56.5618 11.0844 56.1593C11.6468 55.7461 12.1395 55.4264 12.5625 55.2C12.9855 54.9736 13.2764 54.8703 13.4352 54.8903C13.6363 54.9155 13.8042 54.9957 13.9391 55.1309C14.0858 55.2568 14.1517 55.4317 14.1369 55.6556C14.1248 55.7616 14.0739 55.8788 13.9841 56.0073C13.8955 56.1251 13.7375 56.2397 13.5101 56.3509C13.2604 56.47 12.9386 56.6554 12.5449 56.907C12.1513 57.1585 11.7245 57.4651 11.2646 57.8266C10.8059 58.1775 10.3482 58.5662 9.89166 58.9926C9.4363 59.4084 9.01087 59.8441 8.61539 60.2997C8.22111 60.7447 7.89683 61.1877 7.64256 61.6288C7.38828 62.0699 7.23818 62.4918 7.19225 62.8945C7.12093 63.5198 7.24116 64.0186 7.55295 64.391C7.86474 64.7634 8.32756 64.9881 8.94141 65.0651C9.25891 65.105 9.64491 65.0621 10.0994 64.9364C10.5539 64.8107 11.0256 64.628 11.5145 64.3884C12.014 64.1501 12.4954 63.8827 12.9586 63.5861C13.4231 63.2789 13.8234 62.969 14.1597 62.6565C14.5065 62.3453 14.7438 62.0526 14.8717 61.7784C14.5999 61.8088 14.2586 61.8358 13.848 61.8595C13.4374 61.8832 13.0114 61.8996 12.5703 61.9087C12.1397 61.9192 11.7473 61.9237 11.3932 61.9222C11.0391 61.9208 10.7827 61.9101 10.624 61.8902C10.2959 61.849 10.0462 61.7317 9.87507 61.5382C9.71449 61.346 9.64387 61.1652 9.66321 60.9956C9.6765 60.879 9.73682 60.7737 9.84416 60.6797C9.9515 60.5857 10.1075 60.5354 10.3122 60.5288C10.5487 60.5263 10.8611 60.5171 11.2493 60.5014C11.6494 60.4763 12.0647 60.4586 12.4953 60.4481C12.9377 60.4284 13.3418 60.4146 13.7077 60.4068C14.0842 60.4003 14.3677 60.409 14.5582 60.433C15.1085 60.502 15.4973 60.7175 15.7244 61.0792C15.9527 61.4304 16.033 61.9027 15.9653 62.4962C15.9327 62.7823 15.7499 63.1141 15.417 63.4916C15.0841 63.869 14.6489 64.2497 14.1113 64.6337C13.5854 65.0085 13.0044 65.3494 12.3682 65.6565C11.7426 65.965 11.109 66.2026 10.4673 66.3693C9.8269 66.5254 9.23151 66.5689 8.68116 66.4998ZM24.5348 61.6369C24.4961 61.976 24.3522 62.2966 24.103 62.5985C23.8551 62.8899 23.5396 63.162 23.1565 63.4149C22.7746 63.6572 22.3574 63.879 21.9051 64.0802C21.4527 64.2814 21.004 64.4508 20.5589 64.5885C20.1138 64.7261 19.71 64.8313 19.3474 64.904C19.2156 65.3067 19.1316 65.667 19.0953 65.985C19.0723 66.1863 19.1036 66.3354 19.1892 66.4321C19.2748 66.5288 19.4181 66.5898 19.6192 66.6151C20.0637 66.6709 20.5438 66.6505 21.0593 66.554C21.5749 66.4574 22.1065 66.3146 22.6541 66.1253C23.2017 65.936 23.73 65.7282 24.2389 65.5019C24.7478 65.2755 25.2125 65.0597 25.6331 64.8545C26.0643 64.6507 26.4213 64.4859 26.704 64.3601C26.9867 64.2343 27.1704 64.1768 27.2551 64.1874C27.3821 64.2034 27.4725 64.2577 27.5263 64.3505C27.5919 64.4339 27.6187 64.5287 27.6066 64.6347C27.5969 64.7194 27.4459 64.8671 27.1535 65.0776C26.8717 65.2895 26.4951 65.5325 26.0237 65.8065C25.5535 66.07 25.0292 66.3374 24.4508 66.6088C23.8723 66.8802 23.2751 67.1277 22.6592 67.3514C22.0538 67.5764 21.471 67.7451 20.9107 67.8575C20.3609 67.9713 19.8744 68.0016 19.4511 67.9484C18.9007 67.8793 18.4956 67.6189 18.2359 67.167C17.9761 66.7152 17.8957 66.0547 17.9949 65.1857C18.0613 64.6028 18.2025 64.0239 18.4184 63.4491C18.6448 62.8755 18.9212 62.3351 19.2474 61.8278C19.5854 61.3112 19.9427 60.8616 20.3191 60.4789C20.7073 60.0869 21.1006 59.7922 21.4988 59.595C21.8982 59.3871 22.2726 59.3051 22.6218 59.349C23.2886 59.4326 23.7914 59.6839 24.1301 60.1026C24.4688 60.5214 24.6037 61.0328 24.5348 61.6369ZM19.8204 63.7218C20.1715 63.5616 20.5343 63.3922 20.909 63.2134C21.2836 63.0347 21.6324 62.8474 21.9553 62.6514C22.2783 62.4555 22.5442 62.2416 22.7531 62.0099C22.9739 61.7688 23.0999 61.5105 23.1314 61.235C23.1761 60.8429 22.9868 60.6202 22.5634 60.5671C22.2988 60.5339 21.999 60.6682 21.664 60.9702C21.3408 61.2628 21.0166 61.6575 20.6916 62.1542C20.3666 62.6509 20.0762 63.1734 19.8204 63.7218ZM25.0458 63.4909C24.7624 63.4338 24.6513 63.2317 24.7124 62.8846C24.7326 62.8012 24.8023 62.7078 24.9214 62.6045C25.0418 62.4906 25.1713 62.437 25.3101 62.4437C25.6419 62.4531 26.0495 62.4559 26.533 62.4521C27.0283 62.439 27.5724 62.4213 28.1654 62.399C28.3305 61.893 28.5197 61.3631 28.7332 60.8094C28.9466 60.2557 29.1741 59.7199 29.4157 59.202C29.6585 58.6735 29.9058 58.1993 30.1577 57.7795C30.4095 57.3596 30.6611 57.0364 30.9123 56.81C31.0421 56.708 31.157 56.6418 31.257 56.6114C31.3583 56.5703 31.446 56.5545 31.5201 56.5638C31.6683 56.5824 31.7775 56.6606 31.8476 56.7984C31.9284 56.9375 31.9597 57.0866 31.9415 57.2455C31.9319 57.3303 31.9063 57.4131 31.8649 57.4939C31.5855 58.0608 31.2746 58.7635 30.9321 59.602C30.5895 60.4405 30.222 61.3564 29.8296 62.3499C30.8214 62.3131 31.8145 62.2658 32.8087 62.2079C33.8029 62.1499 34.6578 62.0906 35.3732 62.0299C35.584 61.9704 35.7356 62.0055 35.8282 62.1354C35.9313 62.2666 35.9762 62.3905 35.9629 62.507C35.946 62.6554 35.891 62.7614 35.7978 62.8249C35.7153 62.8898 35.6287 62.9434 35.5379 62.9858L35.5203 62.9997C35.2989 63.0579 34.9699 63.1187 34.5333 63.1822C34.0978 63.235 33.5977 63.2905 33.0329 63.3486C32.4692 63.3961 31.8685 63.4389 31.2308 63.4771C30.6036 63.5166 29.983 63.5462 29.3689 63.5659C29.0191 64.468 28.661 65.3959 28.2945 66.3496C27.9399 67.294 27.5871 68.2226 27.2361 69.1353C27.0867 69.5035 26.9378 69.7267 26.7894 69.8048C26.6503 69.8948 26.5066 69.9305 26.3585 69.9119C26.1891 69.8907 26.0482 69.8085 25.9357 69.6654C25.8338 69.5236 25.8475 69.262 25.9769 68.8805L27.7541 63.6051C27.1082 63.6207 26.5394 63.6192 26.0477 63.6005C25.5667 63.5831 25.2327 63.5466 25.0458 63.4909ZM42.7143 71.2233C42.4815 71.194 42.3094 71.1026 42.1981 70.9489C42.0962 70.8071 42.0549 70.6514 42.0742 70.4818C42.0912 70.3334 42.1704 70.2036 42.3119 70.0924C42.4652 69.9719 42.6643 69.8733 42.9092 69.7965C43.358 69.6271 43.7802 69.4544 44.176 69.2783C44.5824 69.1036 44.9166 68.9037 45.1784 68.6785C45.4403 68.4534 45.5875 68.1978 45.6201 67.9116C45.6479 67.6679 45.5897 67.4724 45.4455 67.3253C45.3024 67.1676 45.0933 67.0715 44.8181 67.037C44.6594 67.0171 44.4335 67.0209 44.1405 67.0487C43.8487 67.0658 43.5292 67.0902 43.1821 67.1219C42.8467 67.1443 42.5167 67.1673 42.1919 67.1911C41.8684 67.2042 41.5955 67.1968 41.3732 67.1689C40.971 67.1184 40.6803 66.9852 40.501 66.7692C40.3228 66.5426 40.2531 66.2597 40.2918 65.9206C40.3111 65.751 40.4407 65.5093 40.6805 65.1954C40.9202 64.8815 41.2277 64.5385 41.603 64.1663C41.99 63.7849 42.4088 63.4075 42.8593 63.0341C43.3098 62.6606 43.762 62.3197 44.2159 62.0112C44.6803 61.704 45.1052 61.4617 45.4904 61.2843C45.8862 61.1082 46.2058 61.0355 46.4492 61.066C46.6927 61.0966 46.8688 61.1993 46.9777 61.3742C47.0865 61.5491 47.1271 61.7585 47.0993 62.0022C47.0775 62.193 47.027 62.3533 46.9478 62.4831C46.8698 62.6023 46.726 62.6864 46.5165 62.7353C46.3175 62.7856 46.0163 62.7908 45.613 62.7509C45.1627 63.0276 44.6806 63.3487 44.1666 63.7142C43.6643 64.0704 43.1973 64.4471 42.7655 64.8444C42.3456 65.2324 42.0279 65.6171 41.8127 65.9986C42.1752 65.9259 42.61 65.8783 43.1171 65.856C43.636 65.8244 44.1548 65.8411 44.6734 65.9062C45.4883 66.0085 46.0704 66.2697 46.4197 66.6898C46.7808 67.1006 46.9275 67.6027 46.8598 68.1962C46.8163 68.5778 46.6492 68.9599 46.3587 69.3427C46.0799 69.7162 45.7301 70.0539 45.3092 70.3558C44.8883 70.6577 44.4488 70.8874 43.9907 71.0449C43.5313 71.213 43.1059 71.2724 42.7143 71.2233ZM47.2286 66.2753C46.9452 66.2183 46.8341 66.0162 46.8952 65.6691C46.9154 65.5857 46.9851 65.4923 47.1042 65.389C47.2246 65.2751 47.3541 65.2215 47.4929 65.2282C47.8247 65.2376 48.2323 65.2404 48.7158 65.2365C49.2111 65.2235 49.7552 65.2058 50.3482 65.1835C50.5133 64.6774 50.7025 64.1476 50.916 63.5939C51.1294 63.0402 51.3569 62.5044 51.5985 61.9865C51.8413 61.458 52.0886 60.9838 52.3405 60.5639C52.5923 60.1441 52.8439 59.8209 53.0951 59.5944C53.2249 59.4925 53.3398 59.4263 53.4398 59.3958C53.5411 59.3548 53.6288 59.3389 53.7029 59.3482C53.8511 59.3668 53.9603 59.445 54.0304 59.5828C54.1112 59.722 54.1425 59.871 54.1243 60.03C54.1147 60.1148 54.0891 60.1976 54.0477 60.2784C53.7683 60.8453 53.4574 61.548 53.1148 62.3865C52.7723 63.2249 52.4048 64.1409 52.0124 65.1344C53.0042 65.0976 53.9973 65.0503 54.9915 64.9923C55.9857 64.9344 56.8406 64.8751 57.556 64.8144C57.7668 64.7548 57.9184 64.79 58.011 64.9199C58.1141 65.0511 58.159 65.1749 58.1457 65.2915C58.1288 65.4399 58.0738 65.5458 57.9806 65.6094C57.8981 65.6743 57.8115 65.7279 57.7207 65.7703L57.7031 65.7842C57.4817 65.8424 57.1527 65.9032 56.7161 65.9667C56.2806 66.0195 55.7805 66.075 55.2156 66.1331C54.652 66.1806 54.0513 66.2234 53.4136 66.2616C52.7864 66.3011 52.1658 66.3307 51.5517 66.3504C51.2019 67.2524 50.8437 68.1803 50.4773 69.1341C50.1227 70.0785 49.7699 71.0071 49.4189 71.9197C49.2695 72.288 49.1206 72.5112 48.9722 72.5893C48.8331 72.6793 48.6894 72.715 48.5413 72.6964C48.3719 72.6752 48.231 72.593 48.1185 72.4499C48.0166 72.3081 48.0303 72.0464 48.1597 71.6649L49.9369 66.3895C49.291 66.4052 48.7222 66.4037 48.2305 66.385C47.7494 66.3676 47.4155 66.331 47.2286 66.2753ZM55.7955 72.9298C55.3933 72.8793 55.081 72.652 54.8588 72.2478C54.6483 71.8344 54.5775 71.3257 54.6464 70.7216C54.7104 70.1599 54.9115 69.6208 55.2495 69.1042C55.5981 68.589 56.0343 68.1063 56.558 67.656C57.0817 67.2058 57.6429 66.8032 58.2416 66.4484C58.8415 66.083 59.4348 65.7758 60.0214 65.527C60.6186 65.2794 61.1603 65.0948 61.6465 64.9731C62.1327 64.8514 62.5134 64.8078 62.7886 64.8423C62.9368 64.8609 63.0549 64.908 63.1429 64.9836C63.2321 65.0485 63.2682 65.1552 63.2513 65.3035C63.2404 65.3989 63.1931 65.4843 63.1093 65.5598C63.1199 65.5612 63.1305 65.5625 63.1411 65.5638C63.3739 65.593 63.4746 65.7454 63.4432 66.021C63.4323 66.1164 63.3729 66.3078 63.265 66.5952C63.1583 66.8721 63.0325 67.2218 62.8877 67.6443C62.7429 68.0669 62.6032 68.5385 62.4687 69.0591C62.3354 69.5691 62.2379 70.0943 62.1762 70.6348C62.1243 71.0905 62.2729 71.3403 62.6222 71.3841C63.0138 71.4333 63.4209 71.393 63.8436 71.2633C64.2664 71.1337 64.6827 70.9656 65.0928 70.759C65.504 70.5419 65.8829 70.3261 66.2294 70.1116C66.5771 69.8865 66.8724 69.6978 67.1152 69.5456C67.358 69.3933 67.527 69.3231 67.6223 69.3351C67.7069 69.3457 67.778 69.3815 67.8355 69.4425C67.8929 69.5034 67.915 69.5922 67.9017 69.7088C67.8896 69.8148 67.762 69.9922 67.5189 70.2412C67.2758 70.4902 66.9597 70.7676 66.5705 71.0735C66.1814 71.3794 65.7511 71.6694 65.2797 71.9435C64.8083 72.2175 64.333 72.432 63.8537 72.5868C63.3744 72.7416 62.9284 72.7932 62.5157 72.7413C62.1982 72.7015 61.918 72.5696 61.6752 72.3456C61.4441 72.1124 61.2764 71.7473 61.1721 71.2505C61.0783 70.755 61.0791 70.0886 61.1746 69.2514L61.22 68.8539C60.6035 69.6473 59.969 70.3631 59.3165 71.0014C58.6745 71.6411 58.0489 72.1377 57.4396 72.4912C56.841 72.846 56.2929 72.9922 55.7955 72.9298ZM62.3564 65.9491C62.3011 65.9636 62.2234 65.9861 62.1233 66.0165C61.6111 66.178 61.0716 66.3898 60.505 66.6519C59.9489 66.9153 59.3992 67.2172 58.8558 67.5575C58.323 67.8991 57.8361 68.2626 57.3949 68.6479C56.9538 69.0333 56.5914 69.4339 56.3078 69.8498C56.0242 70.2657 55.8582 70.6856 55.8098 71.1095C55.7941 71.2473 55.8085 71.3566 55.853 71.4374C55.908 71.5196 56.0096 71.5699 56.1578 71.5885C56.3694 71.6151 56.6597 71.5172 57.0286 71.2947C57.3987 71.0617 57.8102 70.7479 58.2632 70.3532C58.7267 69.9599 59.1957 69.5189 59.6701 69.0303C60.1445 68.5416 60.5984 68.0449 61.0316 67.5403C61.4755 67.0371 61.8616 66.5695 62.19 66.1378C62.2408 66.0689 62.2963 66.006 62.3564 65.9491ZM66.5784 74.1704C66.409 74.1492 66.274 74.0623 66.1733 73.9099C66.0726 73.7576 66.0362 73.5595 66.064 73.3157C66.0845 73.1356 66.1554 72.8435 66.2766 72.4395C66.4096 72.0262 66.5558 71.5447 66.7151 70.9949C66.885 70.4465 67.0415 69.8749 67.1845 69.2801C67.3287 68.6748 67.4328 68.0912 67.4968 67.5295C67.5283 67.254 67.62 67.0613 67.7721 66.9513C67.936 66.8322 68.1079 66.7839 68.2878 66.8065C68.4572 66.8277 68.5721 66.9496 68.6326 67.1722C68.6931 67.3948 68.6606 67.8207 68.5352 68.45C69.1453 67.4301 69.7789 66.6281 70.4359 66.0441C71.1048 65.4509 71.7465 65.0477 72.3613 64.8346C72.9772 64.6109 73.518 64.5283 73.9837 64.5868C74.2906 64.6253 74.5056 64.7168 74.6287 64.8612C74.7636 64.9964 74.8226 65.1382 74.8057 65.2866C74.7827 65.4879 74.6799 65.6363 74.4973 65.7316C74.3264 65.8176 74.0314 65.9096 73.6123 66.0075C73.1261 66.1292 72.6733 66.2874 72.2539 66.4819C71.8463 66.6673 71.4461 66.9288 71.0533 67.2665C70.6711 67.6055 70.2822 68.0511 69.8864 68.6034C69.4918 69.1452 69.0815 69.8246 68.6555 70.6419C68.2295 71.4591 67.7624 72.4486 67.2542 73.6103C67.1641 73.8354 67.0607 73.9891 66.944 74.0712C66.8378 74.1546 66.716 74.1877 66.5784 74.1704ZM71.9694 69.3809C71.6861 69.3238 71.575 69.1218 71.636 68.7747C71.6563 68.6912 71.726 68.5979 71.8451 68.4946C71.9654 68.3807 72.095 68.3271 72.2338 68.3337C72.5655 68.3431 72.9731 68.3459 73.4566 68.3421C73.952 68.329 74.4961 68.3114 75.0891 68.289C75.2541 67.783 75.4434 67.2532 75.6568 66.6995C75.8703 66.1458 76.0978 65.61 76.3394 65.0921C76.5821 64.5636 76.8295 64.0894 77.0813 63.6695C77.3332 63.2496 77.5847 62.9265 77.836 62.7C77.9657 62.5981 78.0806 62.5319 78.1807 62.5014C78.282 62.4604 78.3697 62.4445 78.4438 62.4538C78.5919 62.4724 78.7011 62.5506 78.7713 62.6884C78.852 62.8276 78.8833 62.9766 78.8652 63.1356C78.8555 63.2204 78.83 63.3031 78.7886 63.3839C78.5092 63.9509 78.1982 64.6536 77.8557 65.492C77.5132 66.3305 77.1457 67.2465 76.7533 68.2399C77.7451 68.2032 78.7381 68.1558 79.7324 68.0979C80.7266 68.04 81.5814 67.9806 82.2969 67.92C82.5076 67.8604 82.6593 67.8956 82.7518 68.0254C82.8549 68.1566 82.8999 68.2805 82.8866 68.3971C82.8696 68.5455 82.8146 68.6514 82.7215 68.715C82.6389 68.7799 82.5523 68.8335 82.4616 68.8759L82.4439 68.8898C82.2226 68.948 81.8936 69.0088 81.4569 69.0722C81.0215 69.1251 80.5214 69.1805 79.9565 69.2386C79.3929 69.2861 78.7922 69.329 78.1544 69.3672C77.5273 69.4067 76.9066 69.4363 76.2925 69.4559C75.9427 70.358 75.5846 71.2859 75.2182 72.2396C74.8636 73.1841 74.5107 74.1126 74.1597 75.0253C74.0104 75.3936 73.8615 75.6167 73.713 75.6948C73.5739 75.7849 73.4303 75.8206 73.2821 75.802C73.1128 75.7807 72.9719 75.6986 72.8594 75.5554C72.7574 75.4136 72.7712 75.152 72.9006 74.7705L74.6778 69.4951C74.0319 69.5108 73.4631 69.5093 72.9714 69.4906C72.4903 69.4732 72.1563 69.4366 71.9694 69.3809ZM86.9549 69.4721C86.9162 69.8113 86.7723 70.1318 86.5232 70.4338C86.2753 70.7251 85.9597 70.9973 85.5766 71.2502C85.1947 71.4925 84.7776 71.7142 84.3253 71.9155C83.8729 72.1167 83.4242 72.2861 82.9791 72.4237C82.534 72.5613 82.1301 72.6665 81.7676 72.7392C81.6358 73.1419 81.5517 73.5023 81.5155 73.8202C81.4925 74.0216 81.5238 74.1706 81.6094 74.2673C81.695 74.3641 81.8383 74.4251 82.0394 74.4503C82.4839 74.5061 82.9639 74.4857 83.4795 74.3892C83.9951 74.2927 84.5267 74.1498 85.0743 73.9605C85.6219 73.7713 86.1501 73.5635 86.659 73.3371C87.1679 73.1108 87.6327 72.895 88.0533 72.6898C88.4845 72.4859 88.8414 72.3211 89.1241 72.1953C89.4069 72.0696 89.5906 72.012 89.6752 72.0226C89.8022 72.0386 89.8926 72.0929 89.9465 72.1857C90.0121 72.2692 90.0389 72.3639 90.0268 72.4699C90.0171 72.5547 89.8661 72.7023 89.5737 72.9129C89.2919 73.1247 88.9153 73.3677 88.4439 73.6418C87.9737 73.9053 87.4494 74.1727 86.8709 74.4441C86.2925 74.7154 85.6953 74.963 85.0793 75.1866C84.474 75.4116 83.8911 75.5804 83.3308 75.6928C82.7811 75.8065 82.2946 75.8368 81.8712 75.7837C81.3209 75.7146 80.9158 75.4541 80.656 75.0023C80.3962 74.5504 80.3159 73.89 80.415 73.021C80.4815 72.4381 80.6227 71.8592 80.8385 71.2843C81.065 70.7107 81.3413 70.1703 81.6676 69.663C82.0056 69.1465 82.3628 68.6968 82.7393 68.3141C83.1275 67.9221 83.5207 67.6275 83.919 67.4302C84.3184 67.2224 84.6928 67.1404 85.042 67.1842C85.7088 67.2679 86.2115 67.5191 86.5502 67.9379C86.8889 68.3566 87.0238 68.868 86.9549 69.4721ZM82.2406 71.557C82.5916 71.3969 82.9545 71.2274 83.3291 71.0487C83.7038 70.87 84.0526 70.6826 84.3755 70.4867C84.6984 70.2907 84.9644 70.0769 85.1733 69.8451C85.394 69.6041 85.5201 69.3458 85.5515 69.0702C85.5962 68.6781 85.4069 68.4555 84.9836 68.4023C84.719 68.3691 84.4192 68.5035 84.0842 68.8054C83.7609 69.0981 83.4368 69.4928 83.1118 69.9894C82.7868 70.4861 82.4964 71.0087 82.2406 71.557ZM95.3264 69.362C95.6908 68.709 96.0416 68.0328 96.379 67.3334C96.727 66.6354 97.0504 65.9181 97.3491 65.1816C97.4368 64.9776 97.5513 64.82 97.6929 64.7088C97.8462 64.5883 98.0128 64.5393 98.1927 64.5619C98.3197 64.5779 98.4201 64.6388 98.4939 64.7448C98.5783 64.8522 98.6114 64.9853 98.5932 65.1443C98.5703 65.3457 98.451 65.6854 98.2354 66.1636C98.0305 66.6431 97.768 67.2498 97.4482 67.9836C97.1389 68.7188 96.811 69.5698 96.4645 70.5368C96.1299 71.4945 95.8149 72.5622 95.5195 73.7398C95.2348 74.9188 95.015 76.1866 94.8603 77.5431C94.8264 77.8399 94.7351 78.0756 94.5864 78.2505C94.4364 78.4359 94.2715 78.5173 94.0915 78.4947C93.9857 78.4814 93.8882 78.4423 93.799 78.3774C93.7098 78.3124 93.6396 78.1746 93.5885 77.9639C93.5467 77.7652 93.5283 77.4565 93.5331 77.0379C93.5391 76.6087 93.5832 76.0337 93.6654 75.3131C93.7283 74.762 93.8283 74.1672 93.9655 73.5287C93.3784 74.3472 92.7615 75.0491 92.1151 75.6344C91.4804 76.2105 90.8786 76.6402 90.3095 76.9235C89.751 77.2081 89.2865 77.3272 88.9161 77.2807C88.461 77.2236 88.1081 77.0234 87.8574 76.6802C87.6161 76.3489 87.5293 75.8865 87.597 75.293C87.6562 74.7737 87.8389 74.2538 88.1452 73.7333C88.4515 73.2128 88.836 72.7128 89.2986 72.2334C89.7624 71.7433 90.2649 71.2904 90.8062 70.8746C91.3474 70.4588 91.882 70.1013 92.4099 69.8021C92.9497 69.4936 93.4427 69.2653 93.889 69.1171C94.3365 68.9582 94.6926 68.8954 94.9572 68.9286C95.063 68.9419 95.154 68.991 95.2302 69.0758C95.3065 69.1606 95.3385 69.256 95.3264 69.362ZM95.0638 69.8289C94.9813 69.8938 94.8829 69.9567 94.7686 70.0176C94.6543 70.0785 94.5288 70.1433 94.3921 70.2122C93.889 70.4823 93.3321 70.7994 92.7216 71.1635C92.123 71.5183 91.5406 71.9182 90.9746 72.3631C90.4203 72.7988 89.953 73.2722 89.5726 73.7835C89.1923 74.2947 88.9689 74.8418 88.9024 75.4247C88.8734 75.679 88.9859 75.8221 89.2399 75.854C89.5891 75.8979 89.9889 75.7814 90.4391 75.5047C90.9011 75.2187 91.3882 74.8068 91.9004 74.2692C92.4139 73.7209 92.9388 73.0719 93.4751 72.3223C94.0127 71.562 94.5423 70.7309 95.0638 69.8289ZM22.7276 85.3711C22.4442 85.314 22.3331 85.112 22.3942 84.7649C22.4144 84.6814 22.4841 84.588 22.6032 84.4848C22.7236 84.3709 22.8531 84.3173 22.9919 84.3239C23.3237 84.3333 23.7313 84.3361 24.2148 84.3323C24.7101 84.3192 25.2542 84.3015 25.8472 84.2792C26.0123 83.7732 26.2015 83.2434 26.415 82.6897C26.6284 82.136 26.8559 81.6002 27.0975 81.0823C27.3403 80.5538 27.5876 80.0796 27.8395 79.6597C28.0913 79.2398 28.3429 78.9167 28.5941 78.6902C28.7239 78.5882 28.8388 78.522 28.9388 78.4916C29.0401 78.4506 29.1278 78.4347 29.2019 78.444C29.3501 78.4626 29.4593 78.5408 29.5294 78.6786C29.6102 78.8177 29.6415 78.9668 29.6233 79.1258C29.6137 79.2105 29.5881 79.2933 29.5467 79.3741C29.2673 79.941 28.9564 80.6437 28.6138 81.4822C28.2713 82.3207 27.9038 83.2367 27.5114 84.2301C28.5032 84.1934 29.4963 84.146 30.4905 84.0881C31.4847 84.0301 32.3396 83.9708 33.055 83.9101C33.2658 83.8506 33.4174 83.8858 33.51 84.0156C33.6131 84.1468 33.658 84.2707 33.6447 84.3873C33.6278 84.5356 33.5728 84.6416 33.4796 84.7052C33.3971 84.7701 33.3105 84.8237 33.2197 84.866L33.2021 84.8799C32.9807 84.9382 32.6517 84.999 32.2151 85.0624C31.7796 85.1153 31.2795 85.1707 30.7147 85.2288C30.151 85.2763 29.5503 85.3192 28.9126 85.3574C28.2854 85.3969 27.6648 85.4265 27.0507 85.4461C26.7009 86.3482 26.3428 87.2761 25.9763 88.2298C25.6217 89.1743 25.2689 90.1028 24.9179 91.0155C24.7685 91.3837 24.6196 91.6069 24.4712 91.685C24.3321 91.7751 24.1884 91.8108 24.0403 91.7922C23.8709 91.7709 23.73 91.6887 23.6175 91.5456C23.5156 91.4038 23.5293 91.1422 23.6587 90.7607L25.4359 85.4853C24.79 85.501 24.2212 85.4995 23.7295 85.4807C23.2485 85.4633 22.9145 85.4268 22.7276 85.3711ZM32.695 91.9433C32.0705 91.8649 31.6056 91.5647 31.3001 91.0426C30.9947 90.5206 30.8855 89.878 30.9725 89.1149C31.0039 88.8394 31.0742 88.5526 31.1834 88.2546C31.3043 87.9473 31.4428 87.6744 31.5988 87.436C31.5332 87.3525 31.4864 87.2445 31.4586 87.112C31.432 86.9689 31.4302 86.7967 31.4531 86.5953C31.5244 85.9701 31.6955 85.4111 31.9664 84.9183C32.2373 84.4256 32.5692 84.0104 32.962 83.6727C33.3559 83.3244 33.7767 83.0709 34.2242 82.9121C34.6823 82.7546 35.1336 82.7037 35.5781 82.7595C36.3084 82.8512 36.8709 83.1905 37.2655 83.7776C37.6614 84.354 37.7983 85.1774 37.6762 86.2478C37.6121 86.8095 37.4622 87.3711 37.2264 87.9328C37.0011 88.4957 36.7148 89.0295 36.3674 89.5341C36.0306 90.0401 35.6528 90.4818 35.234 90.8592C34.8258 91.238 34.4008 91.5286 33.9591 91.7311C33.5291 91.9244 33.1077 91.9951 32.695 91.9433ZM32.7082 87.027C32.762 87.1198 32.7811 87.235 32.7654 87.3728C32.7472 87.5318 32.6974 87.6868 32.6157 87.8378C32.5447 87.9901 32.4617 88.2 32.3668 88.4676C32.2718 88.7352 32.1954 89.1233 32.1373 89.632C32.0793 90.1407 32.2514 90.4203 32.6536 90.4708C33.0981 90.5266 33.5308 90.4035 33.9517 90.1016C34.3738 89.7891 34.7651 89.3706 35.1255 88.8461C35.4859 88.3216 35.7817 87.7514 36.013 87.1355C36.2561 86.5103 36.4102 85.9115 36.4755 85.3392C36.5178 84.9683 36.4786 84.7 36.358 84.5344C36.2385 84.3581 35.9989 84.2474 35.639 84.2022C35.2686 84.1557 34.8678 84.2344 34.4366 84.4383C34.0172 84.6329 33.651 84.9255 33.3381 85.3163C33.0252 85.707 32.8385 86.1673 32.778 86.6972C32.7647 86.8137 32.7415 86.9237 32.7082 87.027ZM45.3559 85.2607C45.7202 84.6077 46.0711 83.9315 46.4085 83.2321C46.7565 82.5341 47.0799 81.8168 47.3786 81.0803C47.4663 80.8764 47.5808 80.7188 47.7224 80.6075C47.8757 80.487 48.0423 80.4381 48.2222 80.4606C48.3492 80.4766 48.4496 80.5376 48.5234 80.6436C48.6078 80.7509 48.6409 80.8841 48.6227 81.043C48.5998 81.2444 48.4805 81.5842 48.2649 82.0623C48.06 82.5418 47.7975 83.1485 47.4777 83.8823C47.1684 84.6175 46.8405 85.4686 46.494 86.4355C46.1594 87.3932 45.8444 88.4609 45.549 89.6386C45.2643 90.8175 45.0445 92.0853 44.8898 93.4418C44.8559 93.7386 44.7646 93.9744 44.6159 94.1492C44.4659 94.3346 44.301 94.416 44.121 94.3934C44.0152 94.3801 43.9177 94.341 43.8285 94.2761C43.7393 94.2111 43.6691 94.0733 43.618 93.8627C43.5762 93.6639 43.5578 93.3552 43.5626 92.9366C43.5686 92.5074 43.6127 91.9324 43.6949 91.2118C43.7578 90.6607 43.8578 90.0659 43.995 89.4274C43.4079 90.2459 42.791 90.9478 42.1446 91.5332C41.5099 92.1092 40.9081 92.5389 40.339 92.8222C39.7805 93.1069 39.316 93.2259 38.9456 93.1794C38.4905 93.1223 38.1376 92.9221 37.8869 92.5789C37.6456 92.2476 37.5588 91.7853 37.6265 91.1918C37.6857 90.6725 37.8684 90.1525 38.1747 89.632C38.481 89.1115 38.8654 88.6115 39.3281 88.1321C39.7919 87.6421 40.2944 87.1892 40.8357 86.7734C41.3769 86.3576 41.9115 86.0001 42.4394 85.7008C42.9792 85.3924 43.4722 85.164 43.9185 85.0158C44.366 84.857 44.7221 84.7942 44.9867 84.8274C45.0925 84.8407 45.1835 84.8897 45.2597 84.9745C45.336 85.0593 45.368 85.1547 45.3559 85.2607ZM45.0933 85.7276C45.0108 85.7925 44.9124 85.8554 44.7981 85.9163C44.6838 85.9772 44.5583 86.0421 44.4216 86.1109C43.9185 86.381 43.3616 86.6981 42.7511 87.0622C42.1525 87.417 41.5701 87.8169 41.0041 88.2618C40.4498 88.6975 39.9825 89.171 39.6021 89.6822C39.2218 90.1934 38.9984 90.7405 38.9319 91.3234C38.9029 91.5777 39.0154 91.7208 39.2694 91.7527C39.6186 91.7966 40.0184 91.6801 40.4686 91.4034C40.9306 91.1174 41.4177 90.7056 41.9299 90.1679C42.4434 89.6196 42.9683 88.9706 43.5046 88.221C44.0422 87.4607 44.5718 86.6296 45.0933 85.7276ZM48.4033 94.1731C48.0011 94.1226 47.6889 93.8953 47.4666 93.4912C47.2561 93.0778 47.1853 92.569 47.2542 91.9649C47.3183 91.4032 47.5194 90.8641 47.8574 90.3476C48.206 89.8323 48.6422 89.3496 49.1659 88.8993C49.6896 88.4491 50.2508 88.0466 50.8495 87.6917C51.4494 87.3263 52.0426 87.0191 52.6292 86.7703C53.2264 86.5228 53.7681 86.3381 54.2544 86.2164C54.7406 86.0947 55.1213 86.0511 55.3965 86.0857C55.5446 86.1043 55.6627 86.1513 55.7507 86.2269C55.8399 86.2918 55.8761 86.3985 55.8592 86.5469C55.8483 86.6422 55.801 86.7277 55.7172 86.8032C55.7278 86.8045 55.7384 86.8058 55.749 86.8071C55.9818 86.8364 56.0825 86.9888 56.0511 87.2643C56.0402 87.3597 55.9808 87.5511 55.8729 87.8385C55.7661 88.1154 55.6404 88.4651 55.4956 88.8877C55.3507 89.3102 55.2111 89.7818 55.0766 90.3024C54.9432 90.8124 54.8458 91.3376 54.7841 91.8781C54.7321 92.3338 54.8808 92.5836 55.23 92.6275C55.6216 92.6766 56.0288 92.6364 56.4515 92.5067C56.8742 92.377 57.2906 92.2089 57.7006 92.0024C58.1119 91.7852 58.4907 91.5694 58.8373 91.3549C59.185 91.1298 59.4803 90.9412 59.7231 90.7889C59.9659 90.6366 60.1349 90.5665 60.2301 90.5784C60.3148 90.5891 60.3859 90.6248 60.4433 90.6858C60.5008 90.7468 60.5229 90.8355 60.5096 90.9521C60.4975 91.0581 60.3699 91.2356 60.1268 91.4846C59.8837 91.7335 59.5676 92.011 59.1784 92.3169C58.7893 92.6227 58.359 92.9127 57.8876 93.1868C57.4162 93.4609 56.9409 93.6753 56.4616 93.8301C55.9823 93.985 55.5363 94.0365 55.1235 93.9847C54.806 93.9448 54.5259 93.8129 54.283 93.5889C54.052 93.3557 53.8843 92.9906 53.7799 92.4938C53.6862 91.9983 53.687 91.3319 53.7825 90.4947L53.8278 90.0973C53.2113 90.8906 52.5768 91.6064 51.9243 92.2448C51.2824 92.8844 50.6568 93.381 50.0475 93.7345C49.4488 94.0893 48.9008 94.2355 48.4033 94.1731ZM54.9643 87.1924C54.909 87.2069 54.8312 87.2294 54.7312 87.2599C54.2189 87.4213 53.6795 87.6331 53.1128 87.8952C52.5568 88.1586 52.007 88.4605 51.4637 88.8008C50.9309 89.1424 50.4439 89.5059 50.0028 89.8913C49.5616 90.2766 49.1993 90.6772 48.9156 91.0931C48.632 91.509 48.4661 91.9289 48.4177 92.3528C48.402 92.4906 48.4164 92.5999 48.4608 92.6807C48.5159 92.7629 48.6175 92.8133 48.7656 92.8319C48.9773 92.8584 49.2676 92.7605 49.6365 92.5381C50.0066 92.305 50.4181 91.9912 50.8711 91.5966C51.3346 91.2033 51.8036 90.7623 52.278 90.2736C52.7524 89.7849 53.2062 89.2883 53.6395 88.7837C54.0834 88.2804 54.4695 87.8129 54.7978 87.3811C54.8486 87.3122 54.9041 87.2493 54.9643 87.1924ZM59.9868 99.3519C59.4576 99.2854 58.975 99.1872 58.539 99.0573C58.1123 98.9392 57.6957 98.7794 57.2893 98.5779C56.8817 98.387 56.4418 98.149 55.9698 97.864C55.8301 97.7713 55.7081 97.6646 55.6037 97.544C55.4982 97.434 55.4527 97.3154 55.4672 97.1882C55.4853 97.0293 55.6052 96.8723 55.8268 96.7174C56.0367 96.5717 56.2263 96.5095 56.3956 96.5308C56.5755 96.5534 56.7905 96.6449 57.0406 96.8052C57.3013 96.967 57.6019 97.1552 57.9424 97.3699C58.2817 97.5953 58.661 97.7987 59.0805 97.9804C59.5105 98.1634 59.9795 98.2867 60.4875 98.3505C61.0378 98.4196 61.5824 98.2568 62.1212 97.8622C62.6601 97.4676 63.1319 96.8604 63.5367 96.0405C63.9404 95.2312 64.2105 94.2277 64.347 93.0301C64.3881 92.6698 64.4229 92.2711 64.4513 91.8339C64.4915 91.3874 64.5235 90.9185 64.5473 90.427C64.2305 90.9462 63.8825 91.4561 63.5033 91.9568C63.1347 92.4587 62.7563 92.9057 62.3681 93.2977C61.9905 93.6911 61.6066 93.9976 61.2165 94.2174C60.8383 94.4279 60.4692 94.5106 60.1094 94.4654C59.6543 94.4083 59.3395 94.2505 59.165 93.9921C58.9905 93.7337 58.931 93.3608 58.9866 92.8733C59.0447 92.3646 59.1446 91.8181 59.2863 91.2339C59.4281 90.6497 59.5917 90.0629 59.777 89.4734C59.9741 88.8747 60.1887 88.3104 60.4209 87.7806C60.6531 87.2507 60.8874 86.7964 61.1239 86.4176C61.2539 86.2189 61.4247 86.1329 61.6364 86.1595C61.7846 86.1781 61.9184 86.2755 62.0378 86.4517C62.1691 86.6187 62.2208 86.824 62.193 87.0678C62.1713 87.2586 62.0981 87.5235 61.9735 87.8626C61.849 88.2017 61.6978 88.5858 61.52 89.015C61.3423 89.4442 61.1621 89.8946 60.9795 90.3661C60.7981 90.8271 60.6385 91.2854 60.5006 91.7411C60.364 92.1862 60.2739 92.5995 60.2304 92.981C60.2122 93.14 60.309 93.2327 60.5207 93.2593C60.6371 93.2739 60.8132 93.1885 61.0491 93.0032C61.2967 92.8085 61.5728 92.5529 61.8773 92.2364C62.1935 91.9106 62.5134 91.553 62.8369 91.1636C63.1723 90.765 63.4964 90.3703 63.8093 89.9796C64.1235 89.5783 64.3964 89.2094 64.628 88.873C64.627 88.7869 64.6308 88.7068 64.6393 88.6326C64.6477 88.5584 64.6556 88.4895 64.6629 88.4259C64.7221 87.9066 64.8119 87.59 64.9322 87.4761C65.0643 87.353 65.2204 87.3027 65.4003 87.3253C65.7072 87.3638 65.9163 87.4599 66.0276 87.6136C66.1389 87.7673 66.1752 88.0138 66.1365 88.3529C66.122 88.4801 66.0904 88.6159 66.0418 88.7602C65.9943 88.894 65.9184 89.0888 65.8141 89.3444C65.8033 90.1923 65.7863 90.9534 65.763 91.6277C65.7504 92.3033 65.7054 92.9803 65.628 93.6585C65.4817 94.9409 65.1484 96.0278 64.6281 96.9192C64.1183 97.8119 63.4634 98.4714 62.6633 98.8977C61.8738 99.3254 60.9817 99.4768 59.9868 99.3519ZM70.0373 92.4867C69.9421 92.4747 69.8628 92.4164 69.7996 92.3117C69.7482 92.1978 69.7322 92.056 69.7515 91.8865C69.7781 91.6533 69.8621 91.293 70.0036 90.8055C70.1569 90.3088 70.3457 89.7359 70.57 89.0868C70.8061 88.4284 71.0664 87.7463 71.3509 87.0402C71.646 86.3356 71.9498 85.6481 72.2625 84.9779C72.5763 84.297 72.8811 83.6957 73.1768 83.1738C73.3778 82.8228 73.5948 82.6619 73.8276 82.6911C74.071 82.7217 74.28 82.8662 74.4545 83.1246C74.629 83.383 74.6969 83.6817 74.6582 84.0209C74.6437 84.148 74.553 84.3785 74.3861 84.7123C74.2298 85.0474 74.0227 85.4514 73.7648 85.9243C73.5175 86.3985 73.2448 86.9071 72.9466 87.4502C72.6485 87.9932 72.3439 88.5462 72.0328 89.1092C71.7335 89.6628 71.4537 90.1867 71.1933 90.6807C70.933 91.1748 70.7229 91.6053 70.563 91.9722C70.4623 92.196 70.376 92.3411 70.304 92.4073C70.232 92.4735 70.1431 92.5 70.0373 92.4867ZM68.5603 97.1064C68.4016 97.0865 68.2478 96.9758 68.099 96.7744C67.9502 96.573 67.9073 96.1967 67.9701 95.6456C68.0052 95.3383 68.1317 95.123 68.3497 94.9999C68.5689 94.8662 68.8373 94.8192 69.1548 94.8591C69.6946 94.9269 69.9324 95.2416 69.8684 95.8033C69.8381 96.0682 69.7474 96.2987 69.5963 96.4947C69.4439 96.7013 69.2705 96.8569 69.076 96.9615C68.891 97.078 68.7191 97.1263 68.5603 97.1064Z" fill="#D5D6D7"/>
</svg>
