<svg width="24" height="24" viewBox="0 0 24 24" fill="none" xmlns="http://www.w3.org/2000/svg">
<path fill-rule="evenodd" clip-rule="evenodd" d="M11.9606 3.8001C7.45001 3.82131 3.80001 7.48441 3.80001 12C3.80001 12.8918 3.94211 13.7494 4.20464 14.5519L4.47041 14.0204C5.11038 12.7404 6.87358 12.5814 7.73219 13.7262L8.41143 14.6319C8.45659 14.6921 8.53835 14.7114 8.60567 14.6778C8.67812 14.6415 8.71071 14.5558 8.68063 14.4806L8.25723 13.4221C8.10271 13.0358 8.2701 12.5955 8.64224 12.4095L11.2703 11.0954C11.4356 11.0128 11.4911 10.8039 11.3886 10.6501L12.0542 10.2063L11.3886 10.6501C10.691 9.60364 11.1793 8.18031 12.3724 7.7826L12.5147 7.73519C12.8206 7.63322 13.0837 7.43221 13.2626 7.16392L13.7736 6.39738C13.8658 6.25918 13.8389 6.07375 13.7113 5.96743L14.2234 5.35285L13.7113 5.96743L12.6427 5.07692C12.2559 4.75461 12.0129 4.29557 11.9606 3.8001ZM13.8652 4.01293L14.7356 4.73827L14.2611 5.30766L14.7356 4.73827C15.4913 5.36806 15.6506 6.46635 15.1049 7.28489L14.5939 8.05144C14.2177 8.61577 13.6641 9.0386 13.0206 9.25308L12.8784 9.3005C12.6861 9.36458 12.6074 9.59393 12.7198 9.76255C13.3562 10.7171 13.012 12.0135 11.9858 12.5265L10.0162 13.5114L10.1662 13.8864C10.5053 14.7342 10.138 15.7005 9.32121 16.1088C8.56227 16.4883 7.64054 16.2707 7.13143 15.5919L6.45219 14.6862C6.30723 14.493 6.00954 14.5198 5.9015 14.7359L5.21555 16.1078C5.17143 16.196 5.11195 16.2743 5.04088 16.3395C6.49036 18.659 9.06585 20.2 12 20.2C12.3699 20.2 12.7337 20.1756 13.0901 20.1283C12.8842 19.7753 12.5032 19.55 12.0828 19.55C11.2112 19.55 10.4673 18.9198 10.324 18.06L10.251 17.6223C10.0901 16.6565 10.6796 15.7238 11.621 15.4549L12.6097 15.1724C12.8214 15.1119 12.9979 14.9654 13.0963 14.7685L13.1328 14.6955C13.5145 13.9322 14.2947 13.45 15.1481 13.45C15.7457 13.45 16.3188 13.6874 16.7413 14.1099L16.8314 14.2H17.1283C18.0663 14.2 18.9291 14.6289 19.4968 15.328C19.9488 14.3114 20.2 13.1856 20.2 12C20.2 8.11299 17.495 4.85708 13.8652 4.01293ZM18.551 16.9328L18.5039 16.7915C18.3065 16.1994 17.7524 15.8 17.1283 15.8H16.5C16.2878 15.8 16.0844 15.7157 15.9343 15.5657L15.6099 15.2413C15.4875 15.1188 15.3213 15.05 15.1481 15.05C14.9007 15.05 14.6746 15.1898 14.5639 15.4111L14.5274 15.4841C14.2284 16.0821 13.6921 16.5271 13.0493 16.7108L12.0605 16.9933C11.9016 17.0387 11.8021 17.1962 11.8293 17.3592L11.9022 17.797C11.9169 17.8853 11.9933 17.95 12.0828 17.95C13.2424 17.95 14.2752 18.6726 14.6762 19.7536C16.2323 19.2166 17.5775 18.2235 18.551 16.9328ZM2.20001 12C2.20001 6.58762 6.58762 2.20001 12 2.20001C12.2746 2.20001 12.5466 2.21132 12.8158 2.23353C17.8469 2.64858 21.8 6.86224 21.8 12C21.8 14.0452 21.1727 15.9462 20.0998 17.5181C18.762 19.4785 16.7298 20.9292 14.3544 21.5152C13.5994 21.7014 12.8107 21.8 12 21.8C8.10914 21.8 4.74944 19.5325 3.1674 16.2504C2.5472 14.9637 2.20001 13.5213 2.20001 12ZM15.7498 8.20001C16.1916 8.20001 16.5498 8.55818 16.5498 9.00001C16.5498 10.1351 16.0511 11.1547 15.2635 11.8498C14.9323 12.1422 14.4267 12.1107 14.1344 11.7794C13.842 11.4481 13.8735 10.9426 14.2048 10.6502C14.6628 10.2459 14.9498 9.65698 14.9498 9.00001C14.9498 8.55818 15.3079 8.20001 15.7498 8.20001Z" fill="#FBFBFB"/>
</svg>
