<svg width="17" height="18" viewBox="0 0 17 18" fill="none" xmlns="http://www.w3.org/2000/svg">
<g id="grommet-icons:google" clip-path="url(#clip0_389_9627)">
<path id="Vector" d="M3.73005 7.41688C4.06146 6.41419 4.70107 5.54178 5.55763 4.92411C6.41418 4.30643 7.44393 3.97504 8.49996 3.97721C9.69705 3.97721 10.7794 4.40221 11.6294 5.09779L14.1029 2.625C12.5955 1.31104 10.6639 0.5 8.49996 0.5C5.14955 0.5 2.26521 2.41108 0.878296 5.21042L3.73005 7.41688Z" fill="#EA4335"/>
<path id="Vector_2" d="M11.3617 13.2592C10.5896 13.7572 9.60926 14.0228 8.50001 14.0228C7.44819 14.0249 6.42233 13.6962 5.56768 13.0831C4.71303 12.47 4.07289 11.6035 3.73789 10.6065L0.876221 12.7789C1.57835 14.2001 2.66495 15.3958 4.0126 16.2303C5.36024 17.0649 6.91491 17.5047 8.50001 17.5C10.5776 17.5 12.5623 16.7612 14.0491 15.375L11.3624 13.2592H11.3617Z" fill="#34A853"/>
<path id="Vector_3" d="M14.0491 15.375C15.6039 13.9243 16.6133 11.7653 16.6133 9.00001C16.6133 8.49709 16.536 7.95663 16.4206 7.45442H8.5V10.739H13.0588C12.8343 11.8433 12.2301 12.6982 11.3624 13.2592L14.0491 15.375Z" fill="#4A90E2"/>
<path id="Vector_4" d="M3.73784 10.6065C3.56455 10.0886 3.47651 9.54608 3.47717 9C3.47717 8.44609 3.56571 7.91413 3.73004 7.41688L0.878294 5.21042C0.294895 6.38815 -0.00584536 7.6857 -3.95817e-05 9C-3.95817e-05 10.36 0.315169 11.6421 0.876169 12.779L3.73784 10.6065Z" fill="#FBBC05"/>
</g>
<defs>
<clipPath id="clip0_389_9627">
<rect width="17" height="17" fill="white" transform="translate(0 0.5)"/>
</clipPath>
</defs>
</svg>
