<svg width="24" height="24" viewBox="0 0 24 24" fill="none" xmlns="http://www.w3.org/2000/svg">
<path fill-rule="evenodd" clip-rule="evenodd" d="M4.2 11C4.2 6.69219 7.69218 3.20001 12 3.20001C16.3078 3.20001 19.8 6.69219 19.8 11C19.8 11.1061 19.7793 11.2074 19.7418 11.3C20.7579 11.5788 21.5382 12.4085 21.7461 13.4533C21.8004 13.7264 21.8002 14.0353 21.8 14.427C21.8 14.451 21.8 14.4754 21.8 14.5V16.5C21.8 16.5247 21.8 16.549 21.8 16.573C21.8002 16.9647 21.8004 17.2731 21.7461 17.5463C21.5252 18.6567 20.6573 19.5256 19.5463 19.7466C19.2737 19.8008 18.9658 19.8006 18.5757 19.8004C18.5508 19.8004 18.5256 19.8004 18.5 19.8004C18.4744 19.8004 18.4492 19.8004 18.4243 19.8004C18.0342 19.8006 17.7263 19.8008 17.4538 19.7466C16.3429 19.5256 15.4747 18.6568 15.2538 17.5463C15.1996 17.2737 15.1998 16.9658 15.2 16.5757C15.2 16.5508 15.2 16.5256 15.2 16.5V14.5C15.2 14.4744 15.2 14.4492 15.2 14.4243C15.1998 14.0342 15.1996 13.7259 15.2538 13.4533C15.4748 12.3423 16.3433 11.4747 17.4538 11.2538C17.6783 11.2092 17.9267 11.2014 18.2252 11.2002C18.2088 11.1362 18.2 11.0691 18.2 11C18.2 7.57585 15.4242 4.80001 12 4.80001C8.57584 4.80001 5.8 7.57585 5.8 11C5.8 11.0691 5.79124 11.1362 5.77476 11.2002C6.07332 11.2014 6.32173 11.2092 6.54621 11.2538C7.65675 11.4747 8.52508 12.3424 8.74606 13.4533C8.80038 13.7264 8.80023 14.0353 8.80003 14.427C8.80001 14.451 8.8 14.4754 8.8 14.5V16.5C8.8 16.5247 8.80001 16.549 8.80003 16.573C8.80023 16.9647 8.80038 17.2731 8.74606 17.5463C8.52517 18.6567 7.6572 19.5256 6.54621 19.7466C6.27365 19.8008 5.9658 19.8006 5.57575 19.8004C5.55085 19.8004 5.52562 19.8004 5.50005 19.8004C5.47446 19.8004 5.44923 19.8004 5.42433 19.8004C5.03428 19.8006 4.72635 19.8008 4.45379 19.7466C3.34289 19.5256 2.47471 18.6568 2.2538 17.5463C2.19959 17.2737 2.19976 16.9658 2.19997 16.5757C2.19999 16.5508 2.2 16.5256 2.2 16.5V14.5C2.2 14.4744 2.19999 14.4492 2.19997 14.4243C2.19976 14.0342 2.19959 13.7259 2.2538 13.4533C2.46164 12.4084 3.24224 11.5788 4.25817 11.3C4.22066 11.2074 4.2 11.1061 4.2 11ZM5.50005 12.8C4.99705 12.8 4.86238 12.8039 4.76594 12.8231C4.28963 12.9178 3.91769 13.2897 3.82306 13.7655C3.80388 13.8619 3.8 13.997 3.8 14.5V16.5C3.8 17.003 3.80388 17.1377 3.82306 17.2341C3.91778 17.7103 4.29008 18.0826 4.76594 18.1773C4.86237 18.1965 4.99705 18.2004 5.50005 18.2004C6.00303 18.2004 6.13763 18.1965 6.23407 18.1773C6.70984 18.0827 7.08206 17.7104 7.1768 17.2341C7.196 17.1376 7.2 17.0026 7.2 16.5V14.5C7.2 13.9974 7.196 13.862 7.1768 13.7655C7.08215 13.2896 6.71029 12.9178 6.23407 12.8231C6.13763 12.8039 6.00304 12.8 5.50005 12.8ZM18.5 12.8C17.997 12.8 17.8624 12.8039 17.7659 12.8231C17.2896 12.9178 16.9177 13.2897 16.8231 13.7655C16.8039 13.8619 16.8 13.997 16.8 14.5V16.5C16.8 17.003 16.8039 17.1377 16.8231 17.2341C16.9178 17.7103 17.2901 18.0826 17.7659 18.1773C17.8624 18.1965 17.997 18.2004 18.5 18.2004C19.003 18.2004 19.1377 18.1965 19.2341 18.1773C19.7099 18.0827 20.0821 17.7104 20.1768 17.2341C20.196 17.1376 20.2 17.0026 20.2 16.5V14.5C20.2 13.9974 20.196 13.862 20.1768 13.7655C20.0821 13.2896 19.7103 12.9178 19.2341 12.8231C19.1377 12.8039 19.003 12.8 18.5 12.8Z" fill="#FBFBFB"/>
</svg>
