<svg width="1109" height="97" viewBox="0 0 1109 97" fill="none" xmlns="http://www.w3.org/2000/svg">
<path d="M0.335 95V2.84H15.759V41.624H59.407V2.84H74.767V95H59.407V56.088H15.759V95H0.335ZM118.11 95V57.24L86.75 2.84H104.734L125.918 39.576L147.038 2.84H165.022L133.726 57.24V95H118.11ZM176.96 95V2.84H215.04C215.936 2.84 217.088 2.88266 218.496 2.96799C219.904 3.01066 221.205 3.13866 222.4 3.352C227.733 4.16266 232.128 5.93333 235.584 8.66399C239.083 11.3947 241.664 14.8507 243.328 19.032C245.035 23.1707 245.888 27.7787 245.888 32.856C245.888 37.8907 245.035 42.4987 243.328 46.68C241.621 50.8187 239.019 54.2533 235.52 56.984C232.064 59.7147 227.691 61.4853 222.4 62.296C221.205 62.4667 219.883 62.5947 218.432 62.68C217.024 62.7653 215.893 62.808 215.04 62.808H192.384V95H176.96ZM192.384 48.408H214.4C215.253 48.408 216.213 48.3653 217.28 48.28C218.347 48.1947 219.328 48.024 220.224 47.768C222.784 47.128 224.789 45.9973 226.24 44.376C227.733 42.7547 228.779 40.92 229.376 38.872C230.016 36.824 230.336 34.8187 230.336 32.856C230.336 30.8933 230.016 28.888 229.376 26.84C228.779 24.7493 227.733 22.8933 226.24 21.272C224.789 19.6507 222.784 18.52 220.224 17.88C219.328 17.624 218.347 17.4747 217.28 17.432C216.213 17.3467 215.253 17.304 214.4 17.304H192.384V48.408ZM261.71 95V2.84H321.23V17.304H277.134V40.024H313.55V54.488H277.134V80.536H321.23V95H261.71ZM339.585 95V2.84H377.665C378.561 2.84 379.713 2.88266 381.121 2.96799C382.529 3.01066 383.83 3.13866 385.025 3.352C390.358 4.16266 394.753 5.93333 398.209 8.66399C401.708 11.3947 404.289 14.8507 405.953 19.032C407.66 23.1707 408.513 27.7787 408.513 32.856C408.513 40.3653 406.614 46.8293 402.817 52.248C399.02 57.624 393.196 60.952 385.345 62.232L378.753 62.808H355.009V95H339.585ZM392.513 95L374.337 57.496L390.017 54.04L409.985 95H392.513ZM355.009 48.408H377.025C377.878 48.408 378.838 48.3653 379.905 48.28C380.972 48.1947 381.953 48.024 382.849 47.768C385.409 47.128 387.414 45.9973 388.865 44.376C390.358 42.7547 391.404 40.92 392.001 38.872C392.641 36.824 392.961 34.8187 392.961 32.856C392.961 30.8933 392.641 28.888 392.001 26.84C391.404 24.7493 390.358 22.8933 388.865 21.272C387.414 19.6507 385.409 18.52 382.849 17.88C381.953 17.624 380.972 17.4747 379.905 17.432C378.838 17.3467 377.878 17.304 377.025 17.304H355.009V48.408ZM427.085 95V2.84H440.973L472.845 68.12L504.717 2.84H518.605V95H504.205V35.928L475.917 95H469.773L441.549 35.928V95H427.085ZM540.865 95V2.84H556.289V95H540.865ZM578.46 95V2.84H594.076L636.828 67.8V2.84H652.444V95H636.828L594.076 30.04V95H578.46ZM673.335 95V2.84H702.711C703.479 2.84 704.994 2.86133 707.255 2.904C709.559 2.94666 711.778 3.096 713.911 3.352C721.207 4.29066 727.372 6.89333 732.407 11.16C737.484 15.384 741.324 20.7813 743.927 27.352C746.53 33.9227 747.831 41.112 747.831 48.92C747.831 56.728 746.53 63.9173 743.927 70.488C741.324 77.0587 737.484 82.4773 732.407 86.744C727.372 90.968 721.207 93.5493 713.911 94.488C711.82 94.744 709.623 94.8933 707.319 94.936C705.015 94.9787 703.479 95 702.711 95H673.335ZM689.015 80.472H702.711C703.991 80.472 705.612 80.4293 707.575 80.344C709.58 80.2587 711.351 80.0667 712.887 79.768C717.239 78.9573 720.78 77.016 723.511 73.944C726.242 70.872 728.247 67.1387 729.527 62.744C730.85 58.3493 731.511 53.7413 731.511 48.92C731.511 43.928 730.85 39.2347 729.527 34.84C728.204 30.4453 726.156 26.7547 723.383 23.768C720.652 20.7813 717.154 18.8827 712.887 18.072C711.351 17.7307 709.58 17.5387 707.575 17.496C705.612 17.4107 703.991 17.368 702.711 17.368H689.015V80.472ZM795.865 95V2.84H811.289V80.536H851.993V95H795.865ZM859.435 95L888.491 2.84H911.083L940.139 95H924.267L897.899 12.312H901.355L875.307 95H859.435ZM875.627 75.032V60.632H924.011V75.032H875.627ZM954.71 95V2.84H991.254C997.483 2.84 1002.58 4.09866 1006.55 6.616C1010.56 9.09066 1013.53 12.2693 1015.45 16.152C1017.41 20.0347 1018.39 24.0453 1018.39 28.184C1018.39 33.2613 1017.17 37.5707 1014.74 41.112C1012.35 44.6533 1009.09 47.0427 1004.95 48.28V45.08C1010.75 46.4027 1015.15 49.1547 1018.13 53.336C1021.16 57.5173 1022.68 62.2747 1022.68 67.608C1022.68 73.0693 1021.63 77.848 1019.54 81.944C1017.45 86.04 1014.34 89.24 1010.2 91.544C1006.1 93.848 1001.02 95 994.966 95H954.71ZM970.326 80.472H993.046C995.734 80.472 998.145 79.9387 1000.28 78.872C1002.41 77.7627 1004.08 76.2267 1005.27 74.264C1006.51 72.2587 1007.13 69.8907 1007.13 67.16C1007.13 64.6853 1006.59 62.4667 1005.53 60.504C1004.46 58.5413 1002.9 56.984 1000.85 55.832C998.806 54.6373 996.353 54.04 993.494 54.04H970.326V80.472ZM970.326 39.64H991.062C993.281 39.64 995.265 39.2133 997.014 38.36C998.763 37.5067 1000.15 36.248 1001.17 34.584C1002.2 32.92 1002.71 30.872 1002.71 28.44C1002.71 25.24 1001.69 22.5733 999.638 20.44C997.59 18.3067 994.731 17.24 991.062 17.24H970.326V39.64ZM1072.57 96.92C1065.83 96.92 1059.75 95.7467 1054.33 93.4C1048.96 91.0533 1044.52 87.704 1041.02 83.352C1037.56 78.9573 1035.37 73.752 1034.43 67.736L1050.43 65.304C1051.79 70.7653 1054.59 74.9893 1058.81 77.976C1063.08 80.9627 1067.99 82.456 1073.53 82.456C1076.82 82.456 1079.91 81.944 1082.81 80.92C1085.71 79.896 1088.06 78.4027 1089.85 76.44C1091.69 74.4773 1092.6 72.0667 1092.6 69.208C1092.6 67.928 1092.39 66.7547 1091.96 65.688C1091.54 64.5787 1090.9 63.5973 1090.04 62.744C1089.23 61.8907 1088.17 61.1227 1086.84 60.44C1085.56 59.7147 1084.07 59.096 1082.36 58.584L1058.56 51.544C1056.51 50.9467 1054.29 50.1573 1051.9 49.176C1049.55 48.152 1047.31 46.7653 1045.18 45.016C1043.09 43.224 1041.36 40.9627 1040 38.232C1038.67 35.4587 1038.01 32.0453 1038.01 27.992C1038.01 22.0613 1039.51 17.0907 1042.49 13.08C1045.52 9.02666 1049.57 5.99733 1054.65 3.992C1059.77 1.98666 1065.45 1.00533 1071.68 1.048C1077.99 1.09066 1083.62 2.17866 1088.57 4.312C1093.52 6.40266 1097.66 9.45333 1100.99 13.464C1104.32 17.4747 1106.66 22.3173 1108.03 27.992L1091.45 30.872C1090.77 27.6293 1089.45 24.8773 1087.48 22.616C1085.56 20.312 1083.2 18.5627 1080.38 17.368C1077.61 16.1733 1074.64 15.5333 1071.48 15.448C1068.41 15.4053 1065.55 15.8747 1062.91 16.856C1060.31 17.7947 1058.19 19.16 1056.57 20.952C1054.99 22.744 1054.2 24.8347 1054.2 27.224C1054.2 29.4853 1054.89 31.3413 1056.25 32.792C1057.62 34.2 1059.3 35.3307 1061.31 36.184C1063.36 36.9947 1065.43 37.6773 1067.52 38.232L1084.03 42.84C1086.29 43.4373 1088.83 44.248 1091.64 45.272C1094.46 46.296 1097.17 47.7253 1099.77 49.56C1102.37 51.3947 1104.51 53.8053 1106.17 56.792C1107.88 59.7787 1108.73 63.576 1108.73 68.184C1108.73 72.9627 1107.73 77.1653 1105.72 80.792C1103.76 84.376 1101.09 87.3627 1097.72 89.752C1094.35 92.1413 1090.49 93.9333 1086.14 95.128C1081.83 96.3227 1077.31 96.92 1072.57 96.92Z" fill="url(#paint0_linear_1_251)"/>
<defs>
<linearGradient id="paint0_linear_1_251" x1="-9" y1="46" x2="1114" y2="46" gradientUnits="userSpaceOnUse">
<stop stop-color="#885AE9"/>
<stop offset="0.5" stop-color="#E9635A"/>
<stop offset="1" stop-color="#E98013"/>
</linearGradient>
</defs>
</svg>
