<svg width="16" height="16" viewBox="0 0 16 16" fill="none" xmlns="http://www.w3.org/2000/svg">
<g clip-path="url(#clip0_1_6960)">
<path d="M10.75 0.666748H5.25002C4.03444 0.666748 2.86866 1.14963 2.00911 2.00918C1.14957 2.86872 0.666687 4.03451 0.666687 5.25008L0.666687 10.7501C0.666687 11.9657 1.14957 13.1314 2.00911 13.991C2.86866 14.8505 4.03444 15.3334 5.25002 15.3334H10.75C11.9656 15.3334 13.1314 14.8505 13.9909 13.991C14.8505 13.1314 15.3334 11.9657 15.3334 10.7501V5.25008C15.3334 4.03451 14.8505 2.86872 13.9909 2.00918C13.1314 1.14963 11.9656 0.666748 10.75 0.666748ZM13.9584 10.7501C13.9584 12.5192 12.5192 13.9584 10.75 13.9584H5.25002C3.48085 13.9584 2.04169 12.5192 2.04169 10.7501V5.25008C2.04169 3.48091 3.48085 2.04175 5.25002 2.04175H10.75C12.5192 2.04175 13.9584 3.48091 13.9584 5.25008V10.7501Z" fill="#FBFBFB" fill-opacity="0.72"/>
<path d="M8.00002 4.66675C7.11597 4.66675 6.26812 5.01794 5.643 5.64306C5.01788 6.26818 4.66669 7.11603 4.66669 8.00008C4.66669 8.88414 5.01788 9.73198 5.643 10.3571C6.26812 10.9822 7.11597 11.3334 8.00002 11.3334C8.88408 11.3334 9.73192 10.9822 10.357 10.3571C10.9822 9.73198 11.3334 8.88414 11.3334 8.00008C11.3334 7.11603 10.9822 6.26818 10.357 5.64306C9.73192 5.01794 8.88408 4.66675 8.00002 4.66675ZM8.00002 10.0834C7.44769 10.0828 6.91817 9.86305 6.52761 9.47249C6.13705 9.08193 5.91735 8.55241 5.91669 8.00008C5.91669 6.85091 6.85169 5.91675 8.00002 5.91675C9.14835 5.91675 10.0834 6.85091 10.0834 8.00008C10.0834 9.14841 9.14835 10.0834 8.00002 10.0834Z" fill="#FBFBFB" fill-opacity="0.72"/>
<path d="M11.6333 4.89974C11.9277 4.89974 12.1663 4.66111 12.1663 4.36674C12.1663 4.07237 11.9277 3.83374 11.6333 3.83374C11.339 3.83374 11.1003 4.07237 11.1003 4.36674C11.1003 4.66111 11.339 4.89974 11.6333 4.89974Z" fill="#FBFBFB" fill-opacity="0.72"/>
</g>
<defs>
<clipPath id="clip0_1_6960">
<rect width="16" height="16" fill="white"/>
</clipPath>
</defs>
</svg>
