<svg width="24" height="24" viewBox="0 0 24 24" fill="none" xmlns="http://www.w3.org/2000/svg">
<path fill-rule="evenodd" clip-rule="evenodd" d="M11.5562 3.33437C11.825 3.15523 12.175 3.15523 12.4438 3.33437L21.4438 9.33437C21.6663 9.48274 21.8 9.73253 21.8 10C21.8 10.2675 21.6663 10.5173 21.4438 10.6657L12.4438 16.6657C12.175 16.8448 11.825 16.8448 11.5562 16.6657L2.55624 10.6657C2.33368 10.5173 2.2 10.2675 2.2 10C2.2 9.73253 2.33368 9.48274 2.55624 9.33437L11.5562 3.33437ZM4.44222 10L12 15.0385L19.5578 10L12 4.96149L4.44222 10ZM2.33436 13.5563C2.57944 13.1886 3.07614 13.0893 3.44376 13.3344L12 19.0385L20.5562 13.3344C20.9239 13.0893 21.4206 13.1886 21.6656 13.5563C21.9107 13.9239 21.8114 14.4206 21.4438 14.6657L12.4438 20.6657C12.175 20.8448 11.825 20.8448 11.5562 20.6657L2.55624 14.6657C2.18861 14.4206 2.08928 13.9239 2.33436 13.5563Z" fill="#FBFBFB"/>
</svg>
