<svg width="20" height="20" viewBox="0 0 20 20" fill="none" xmlns="http://www.w3.org/2000/svg">
<g id="Arrow / Unfold_More">
<path id="Vector (Stroke)" fill-rule="evenodd" clip-rule="evenodd" d="M9.41091 3.57733C9.73634 3.25189 10.264 3.25189 10.5894 3.57733L13.9228 6.91066C14.2482 7.2361 14.2482 7.76374 13.9228 8.08917C13.5973 8.41461 13.0697 8.41461 12.7442 8.08917L10.0002 5.3451L7.25609 8.08917C6.93065 8.41461 6.40301 8.41461 6.07757 8.08917C5.75214 7.76374 5.75214 7.2361 6.07757 6.91066L9.41091 3.57733ZM6.07757 11.9107C6.40301 11.5852 6.93065 11.5852 7.25609 11.9107L10.0002 14.6547L12.7442 11.9107C13.0697 11.5852 13.5973 11.5852 13.9228 11.9107C14.2482 12.2361 14.2482 12.7637 13.9228 13.0892L10.5894 16.4225C10.264 16.7479 9.73634 16.7479 9.41091 16.4225L6.07757 13.0892C5.75214 12.7637 5.75214 12.2361 6.07757 11.9107Z" fill="#D5D6D7" fill-opacity="0.8"/>
</g>
</svg>
