<svg width="24" height="24" viewBox="0 0 24 24" fill="none" xmlns="http://www.w3.org/2000/svg">
<mask id="mask0_3_4" style="mask-type:luminance" maskUnits="userSpaceOnUse" x="0" y="0" width="24" height="24">
<path d="M24 0H0V24H24V0Z" fill="white"/>
</mask>
<g mask="url(#mask0_3_4)">
<path fill-rule="evenodd" clip-rule="evenodd" d="M16.2 4.99995C16.2 3.45356 17.4536 2.19995 19 2.19995C20.5464 2.19995 21.8 3.45356 21.8 4.99995C21.8 6.54636 20.5464 7.79995 19 7.79995C17.4536 7.79995 16.2 6.54636 16.2 4.99995ZM19 3.79995C18.3372 3.79995 17.8 4.33721 17.8 4.99995C17.8 5.6627 18.3372 6.19995 19 6.19995C19.6627 6.19995 20.2 5.6627 20.2 4.99995C20.2 4.33721 19.6627 3.79995 19 3.79995Z" fill="#FBFBFB"/>
<path fill-rule="evenodd" clip-rule="evenodd" d="M16.2 12C16.2 10.4535 17.4536 9.19995 19 9.19995C20.5464 9.19995 21.8 10.4535 21.8 12C21.8 13.5464 20.5464 14.8 19 14.8C17.4536 14.8 16.2 13.5464 16.2 12ZM19 10.8C18.3372 10.8 17.8 11.3372 17.8 12C17.8 12.6627 18.3372 13.2 19 13.2C19.6627 13.2 20.2 12.6627 20.2 12C20.2 11.3372 19.6627 10.8 19 10.8Z" fill="#FBFBFB"/>
<path fill-rule="evenodd" clip-rule="evenodd" d="M2.2 12C2.2 10.4535 3.45361 9.19995 5 9.19995C6.54641 9.19995 7.8 10.4535 7.8 12C7.8 13.5464 6.54641 14.8 5 14.8C3.45361 14.8 2.2 13.5464 2.2 12ZM5 10.8C4.33726 10.8 3.8 11.3372 3.8 12C3.8 12.6627 4.33726 13.2 5 13.2C5.66275 13.2 6.2 12.6627 6.2 12C6.2 11.3372 5.66275 10.8 5 10.8Z" fill="#FBFBFB"/>
<path fill-rule="evenodd" clip-rule="evenodd" d="M16.2 19C16.2 17.4535 17.4536 16.2 19 16.2C20.5464 16.2 21.8 17.4535 21.8 19C21.8 20.5464 20.5464 21.8 19 21.8C17.4536 21.8 16.2 20.5464 16.2 19ZM19 17.8C18.3372 17.8 17.8 18.3372 17.8 19C17.8 19.6627 18.3372 20.2 19 20.2C19.6627 20.2 20.2 19.6627 20.2 19C20.2 18.3372 19.6627 17.8 19 17.8Z" fill="#FBFBFB"/>
<path fill-rule="evenodd" clip-rule="evenodd" d="M11.204 6.82534C11.204 5.31176 12.5386 4.22534 14.0041 4.22534H16.5043C16.9461 4.22534 17.3043 4.58351 17.3043 5.02534C17.3043 5.46717 16.9461 5.82534 16.5043 5.82534H14.0041C13.2594 5.82534 12.804 6.34992 12.804 6.82534V17.1753C12.804 17.6508 13.2594 18.1753 14.0041 18.1753H16.5043C16.9461 18.1753 17.3043 18.5335 17.3043 18.9753C17.3043 19.4172 16.9461 19.7753 16.5043 19.7753H14.0041C12.5386 19.7753 11.204 18.6889 11.204 17.1753V6.82534Z" fill="#FBFBFB"/>
<path fill-rule="evenodd" clip-rule="evenodd" d="M6.69992 12C6.69992 11.5581 7.05809 11.2 7.49992 11.2H16.5006C16.9424 11.2 17.3006 11.5581 17.3006 12C17.3006 12.4418 16.9424 12.8 16.5006 12.8H7.49992C7.05809 12.8 6.69992 12.4418 6.69992 12Z" fill="#FBFBFB"/>
</g>
</svg>
