<svg width="24" height="24" viewBox="0 0 24 24" fill="none" xmlns="http://www.w3.org/2000/svg">
<g id="Phone">
<path id="Vector (Stroke)" fill-rule="evenodd" clip-rule="evenodd" d="M4.89475 3.79995C4.29003 3.79995 3.80001 4.28999 3.80001 4.89448C3.80001 13.3473 10.6526 20.1999 19.1055 20.1999C19.7099 20.1999 20.2 19.7099 20.2 19.1051L20.2005 16.3539C20.2005 16.3539 20.2005 16.354 20.2005 16.3539C20.2004 15.8632 19.9018 15.4221 19.4463 15.2399L16.8099 14.1857C16.4006 14.022 15.9348 14.0956 15.5964 14.3775C15.5963 14.3776 15.5964 14.3774 15.5964 14.3775L14.9159 14.945C13.8036 15.8719 12.1667 15.7986 11.1425 14.7744L9.22655 12.8567C9.22646 12.8566 9.22664 12.8568 9.22655 12.8567C8.20334 11.8332 8.12686 10.1975 9.05438 9.08449L9.62176 8.4041C9.90434 8.06501 9.9783 7.5989 9.81498 7.19036C9.81495 7.19029 9.815 7.19043 9.81498 7.19036L8.75977 4.55449C8.57754 4.0989 8.13621 3.79995 7.64552 3.79995H4.89475ZM2.20001 4.89448C2.20001 3.40611 3.4066 2.19995 4.89475 2.19995H7.64552C8.79038 2.19995 9.8199 2.89692 10.2452 3.95985C10.2451 3.95978 10.2452 3.95992 10.2452 3.95985L11.3004 6.59572C11.6826 7.55127 11.5089 8.63886 10.8509 9.4284L10.2835 10.1088C10.2835 10.1089 10.2836 10.1087 10.2835 10.1088C9.8869 10.585 9.91857 11.286 10.3579 11.7253L12.2739 13.6431C12.7125 14.0814 13.4142 14.1135 13.8911 13.7163C13.891 13.7163 13.8912 13.7162 13.8911 13.7163L14.5716 13.1488C15.3618 12.4902 16.4494 12.3182 17.4041 12.7001L20.0404 13.7543C21.1035 14.1795 21.8005 15.209 21.8005 16.3539L21.8 19.1051C21.8 19.1051 21.8 19.1052 21.8 19.1051C21.7999 20.5932 20.5938 21.7999 19.1055 21.7999C9.76896 21.7999 2.20001 14.231 2.20001 4.89448Z" fill="#FBFBFB"/>
</g>
</svg>
