<svg width="20" height="20" viewBox="0 0 20 20" fill="none" xmlns="http://www.w3.org/2000/svg">
<g id="Settings_backup_restore" clip-path="url(#clip0_422_7326)">
<path id="Vector" d="M17.4971 11.1531C17.6137 6.97309 14.2061 3.5486 9.99855 3.5486L9.99855 2.07862C9.99855 1.70907 9.54863 1.5284 9.29035 1.79119L6.9658 4.08239C6.79917 4.24664 6.79917 4.50121 6.9658 4.66546L9.29035 6.95666C9.54863 7.21124 9.99855 7.03057 9.99855 6.66102L9.99855 5.19104C13.2479 5.19104 15.8724 7.80252 15.8307 11.0217C15.7891 14.0766 13.1813 16.647 10.0819 16.6881C6.82416 16.7292 4.16634 14.1423 4.16634 10.9396C4.16634 9.91305 4.44962 8.95222 4.92453 8.11458C5.10783 7.7943 5.04117 7.40012 4.77456 7.14554C4.3913 6.76778 3.73309 6.84169 3.46648 7.30978C2.85826 8.38558 2.5 9.61741 2.5 10.9396C2.5 15.0867 5.97433 18.4455 10.2152 18.3305C14.1227 18.2238 17.3888 15.0046 17.4971 11.1531Z" fill="#FBFBFB"/>
</g>
<defs>
<clipPath id="clip0_422_7326">
<rect width="20" height="20" fill="white"/>
</clipPath>
</defs>
</svg>
