<svg width="24" height="24" viewBox="0 0 24 24" fill="none" xmlns="http://www.w3.org/2000/svg">
<g id="Interface / Trending_Up">
<g id="Group">
<path id="Vector" d="M22.9578 5.01486H20.8481L22.4515 3.27389L21.1857 2.08493L19.3713 4.03822V2H17.6414V4.84501C16.1224 3.78344 14.2658 3.1465 12.2827 3.1465C7.17722 3.1465 3 7.35032 3 12.5732C3 17.7962 7.17722 22 12.3249 22C17.4726 22 21.6498 17.7537 21.6498 12.5732C21.6498 10.4076 20.8903 8.36943 19.6667 6.7983H23C22.9578 6.75584 22.9578 5.01486 22.9578 5.01486ZM12.3249 20.2166C8.14768 20.2166 4.72996 16.7771 4.72996 12.5308C4.72996 8.2845 8.14768 4.84501 12.3249 4.84501C14.097 4.84501 15.7426 5.48195 17.0506 6.54352L15.2363 8.49681C14.4346 7.90234 13.4219 7.52017 12.3249 7.52017C9.58228 7.52017 7.38819 9.7707 7.38819 12.5308C7.38819 15.2909 9.62447 17.5414 12.3249 17.5414C15.0675 17.5414 17.2616 15.2909 17.2616 12.5308C17.2616 11.5117 16.9662 10.535 16.4177 9.72824L18.2321 7.77495C19.2447 9.0913 19.8776 10.7473 19.8776 12.5308C19.8776 16.7771 16.5021 20.2166 12.3249 20.2166ZM15.5316 12.5732C15.5316 14.3567 14.097 15.8429 12.3249 15.8429C10.5527 15.8429 9.11814 14.3567 9.11814 12.5732C9.11814 10.7898 10.5527 9.30361 12.3249 9.30361C12.9578 9.30361 13.5063 9.47346 14.0127 9.81316L11.692 12.276L12.9578 13.465L15.1941 11.087C15.4051 11.5117 15.5316 12.0212 15.5316 12.5732Z" fill="#FBFBFB"/>
</g>
</g>
</svg>
