<svg width="24" height="24" viewBox="0 0 24 24" fill="none" xmlns="http://www.w3.org/2000/svg">
<path fill-rule="evenodd" clip-rule="evenodd" d="M13.2 7.00001C13.2 6.55818 13.5582 6.20001 14 6.20001H20.0005C20.2126 6.20001 20.4161 6.28431 20.5662 6.43435C20.7162 6.58439 20.8005 6.78789 20.8005 7.00007L20.8 13.0001C20.8 13.4419 20.4418 13.8 20 13.8C19.5581 13.8 19.2 13.4418 19.2 13L19.2003 8.9529L14.7244 13.4988L14.1543 12.9375L14.7244 13.4988L14.7235 13.4997C14.6253 13.5994 14.5526 13.6733 14.4828 13.7357L13.9492 13.1396L14.4828 13.7357C13.4197 14.6873 11.8118 14.6873 10.7487 13.7358C10.6793 13.6736 10.6073 13.601 10.5066 13.4988C10.393 13.3833 10.362 13.3525 10.3385 13.3315C9.88292 12.9237 9.19378 12.9237 8.73816 13.3315C8.71482 13.3524 8.68399 13.3831 8.57085 13.498L4.57007 17.5613C4.26008 17.8761 3.75356 17.8801 3.43873 17.5701C3.1239 17.2601 3.11997 16.7536 3.42996 16.4387L7.43074 12.3754C7.43651 12.3696 7.44219 12.3638 7.44781 12.3581C7.53556 12.2689 7.60486 12.1985 7.67107 12.1393L8.20462 12.7354L7.67108 12.1393C8.73418 11.1877 10.3425 11.1877 11.4056 12.1393L10.8721 12.7354L11.4056 12.1393C11.4719 12.1986 11.5414 12.2692 11.6296 12.3588L11.6467 12.3762L11.0767 12.9375L11.6467 12.3762C11.7562 12.4874 11.7912 12.5215 11.8158 12.5436L11.8158 12.5436C12.2714 12.9514 12.9601 12.9514 13.4157 12.5436C13.4397 12.5221 13.4729 12.4894 13.5843 12.3762L18.0901 7.80001H14C13.5582 7.80001 13.2 7.44184 13.2 7.00001Z" fill="#FBFBFB"/>
</svg>
