<svg width="32" height="32" viewBox="0 0 32 32" fill="none" xmlns="http://www.w3.org/2000/svg">
<path d="M0 16C0 7.16344 7.16344 0 16 0C24.8366 0 32 7.16344 32 16C32 24.8366 24.8366 32 16 32C7.16344 32 0 24.8366 0 16Z" fill="#D5D6D7"/>
<path d="M25.856 28.6043C23.1393 30.7318 19.7174 32 15.9992 32C12.2817 32 8.86026 30.7322 6.14377 28.6053C7.86656 24.9336 11.6314 22.3858 16.0001 22.381C20.3684 22.3857 24.133 24.9332 25.856 28.6043Z" fill="#3D3F45"/>
<path d="M23.2382 12.8571C23.2382 16.802 19.9976 20 16.0001 20C12.0026 20 8.76199 16.802 8.76199 12.8571C8.76199 8.91225 12.0026 5.71429 16.0001 5.71429C19.9976 5.71429 23.2382 8.91225 23.2382 12.8571Z" fill="#3D3F45"/>
</svg>
