<svg width="20" height="20" viewBox="0 0 20 20" fill="none" xmlns="http://www.w3.org/2000/svg">
<path d="M19.9578 3.01486H17.8481L19.4515 1.27389L18.1857 0.0849258L16.3713 2.03822V0H14.6414V2.84501C13.1224 1.78344 11.2658 1.1465 9.2827 1.1465C4.17722 1.1465 0 5.35032 0 10.5732C0 15.7962 4.17722 20 9.32489 20C14.4726 20 18.6498 15.7537 18.6498 10.5732C18.6498 8.40764 17.8903 6.36943 16.6667 4.7983H20C19.9578 4.75584 19.9578 3.01486 19.9578 3.01486ZM9.32489 18.2166C5.14768 18.2166 1.72996 14.7771 1.72996 10.5308C1.72996 6.2845 5.14768 2.84501 9.32489 2.84501C11.097 2.84501 12.7426 3.48195 14.0506 4.54352L12.2363 6.49681C11.4346 5.90234 10.4219 5.52017 9.32489 5.52017C6.58228 5.52017 4.38819 7.7707 4.38819 10.5308C4.38819 13.2909 6.62447 15.5414 9.32489 15.5414C12.0675 15.5414 14.2616 13.2909 14.2616 10.5308C14.2616 9.51168 13.9662 8.53503 13.4177 7.72824L15.2321 5.77495C16.2447 7.0913 16.8776 8.74735 16.8776 10.5308C16.8776 14.7771 13.5021 18.2166 9.32489 18.2166ZM12.5316 10.5732C12.5316 12.3567 11.097 13.8429 9.32489 13.8429C7.55274 13.8429 6.11814 12.3567 6.11814 10.5732C6.11814 8.78981 7.55274 7.30361 9.32489 7.30361C9.95781 7.30361 10.5063 7.47346 11.0127 7.81316L8.69198 10.276L9.95781 11.465L12.1941 9.08705C12.4051 9.51168 12.5316 10.0212 12.5316 10.5732Z" fill="#FBFBFB"/>
</svg>
