<svg width="16" height="16" viewBox="0 0 16 16" fill="none" xmlns="http://www.w3.org/2000/svg">
<path d="M8.2954 12.6544L5.55992 12.6037C4.67423 12.5861 3.78634 12.6213 2.91801 12.4385C1.5971 12.1655 1.50352 10.8265 1.4056 9.70343C1.27067 8.12448 1.32291 6.51687 1.57752 4.9511C1.72127 4.07254 2.28694 3.5483 3.16175 3.49125C6.11484 3.28422 9.08758 3.30875 12.0341 3.40534C12.3453 3.41419 12.6587 3.46259 12.9655 3.51768C14.4802 3.78636 14.5171 5.30366 14.6153 6.58095C14.7132 7.87141 14.6719 9.1685 14.4847 10.4502C14.3346 11.5114 14.0473 12.4013 12.8349 12.4872C11.3159 12.5995 9.83173 12.69 8.30843 12.6612C8.30849 12.6544 8.29974 12.6544 8.2954 12.6544ZM6.6872 9.96771C7.83192 9.30261 8.95479 8.64859 10.093 7.98794C8.94611 7.32284 7.82537 6.66882 6.6872 6.00817V9.96771Z" fill="#FBFBFB" fill-opacity="0.72"/>
</svg>
