<svg width="20" height="20" viewBox="0 0 20 20" fill="none" xmlns="http://www.w3.org/2000/svg">
<g id="Messages_mail">
<path id="Icon (Stroke)" fill-rule="evenodd" clip-rule="evenodd" d="M4.30656 2.66663H15.6934C16.1374 2.66662 16.5104 2.66661 16.8156 2.69155C17.1348 2.71762 17.4381 2.77425 17.726 2.92094C18.165 3.14465 18.522 3.5016 18.7457 3.94065C18.8924 4.22855 18.949 4.53186 18.9751 4.85101C19 5.15624 19 5.52924 19 5.97313V14.0268C19 14.4707 19 14.8437 18.9751 15.1489C18.949 15.4681 18.8924 15.7714 18.7457 16.0593C18.522 16.4983 18.165 16.8553 17.726 17.079C17.4381 17.2257 17.1348 17.2823 16.8156 17.3084C16.5104 17.3333 16.1374 17.3333 15.6935 17.3333H4.3065C3.86261 17.3333 3.48962 17.3333 3.18438 17.3084C2.86524 17.2823 2.56193 17.2257 2.27402 17.079C1.83498 16.8553 1.47802 16.4983 1.25432 16.0593C1.10762 15.7714 1.051 15.4681 1.02492 15.1489C0.999982 14.8437 0.99999 14.4706 1 14.0267V5.97319C0.99999 5.52927 0.999982 5.15626 1.02492 4.85101C1.051 4.53186 1.10762 4.22855 1.25432 3.94065C1.47802 3.5016 1.83498 3.14465 2.27402 2.92094C2.56193 2.77425 2.86524 2.71762 3.18438 2.69155C3.48963 2.66661 3.86265 2.66662 4.30656 2.66663ZM3.38936 4.01377L9.38606 8.67788C9.74717 8.95874 10.2528 8.95874 10.6139 8.67788L16.6106 4.01377C16.3796 4.00036 16.084 3.99996 15.6667 3.99996H4.33333C3.916 3.99996 3.62041 4.00036 3.38936 4.01377ZM17.6409 4.90162L11.4325 9.73035C10.5899 10.3857 9.41006 10.3857 8.56747 9.73035L2.35911 4.90162C2.35724 4.92004 2.35548 4.93934 2.35383 4.95958C2.33385 5.20406 2.33333 5.52225 2.33333 5.99996V14C2.33333 14.4777 2.33385 14.7959 2.35383 15.0403C2.37317 15.277 2.40737 15.3853 2.44233 15.4539C2.5382 15.6421 2.69118 15.7951 2.87934 15.891C2.94796 15.9259 3.05627 15.9601 3.29296 15.9795C3.53743 15.9994 3.85562 16 4.33333 16H15.6667C16.1444 16 16.4626 15.9994 16.707 15.9795C16.9437 15.9601 17.052 15.9259 17.1207 15.891C17.3088 15.7951 17.4618 15.6421 17.5577 15.4539C17.5926 15.3853 17.6268 15.277 17.6462 15.0403C17.6661 14.7959 17.6667 14.4777 17.6667 14V5.99996C17.6667 5.52225 17.6661 5.20406 17.6462 4.95958C17.6445 4.93934 17.6428 4.92004 17.6409 4.90162Z" fill="#FBFBFB" fill-opacity="0.8"/>
</g>
</svg>
